<svg xmlns="http://www.w3.org/2000/svg" width="257" height="64" fill="none"><g clip-path="url(#a)"><mask id="b" width="257" height="64" x="0" y="0" maskUnits="userSpaceOnUse" style="mask-type:luminance"><path fill="#fff" d="M256.34 0H.66v64h255.68V0Z"/></mask><g mask="url(#b)"><path fill="url(#c)" fill-rule="evenodd" d="M37.554.416 49.79 14.92l2.854 26.803-21.595 22.693L5.923 41.648l12.65-32.19L37.555.416ZM19.671 11.93l10.091 10.66-10.32 14.969-10.816 2.473L19.671 11.93ZM9.081 41.908l19.18 17.38-8.796-19.754L9.08 41.908Zm12.49-2.377 9.721 21.833L49.57 42.156l-28-2.625Zm28.842-.58-2.371-22.263-15.262 6.13 17.633 16.133ZM31.247 21.355l16.02-6.436L37.042 2.797l-16.1 7.671 10.305 10.887Zm-.084 2.596 17.704 16.2-27.12-2.542 9.416-13.658Z" clip-rule="evenodd"/><path fill="#000" d="M129.307 50.714c-5.42 0-9.996-1.76-13.657-5.35-3.661-3.591-5.491-8.097-5.491-13.447s1.83-9.786 5.491-13.376c3.661-3.59 8.237-5.42 13.657-5.42 4.576 0 8.519 1.337 11.969 4.012 3.449 2.605 5.631 6.054 6.547 10.208h-6.407c-1.9-4.998-6.477-8.378-12.109-8.378-3.731 0-6.758 1.267-9.222 3.732-2.464 2.463-3.661 5.49-3.661 9.222 0 3.731 1.197 6.829 3.661 9.293 2.464 2.464 5.491 3.66 9.222 3.66 5.632 0 10.209-3.379 12.109-8.377h6.407c-.916 4.154-3.098 7.603-6.547 10.278-3.45 2.605-7.393 3.943-11.969 3.943ZM207.614 16.851c-2.464-2.464-5.703-3.73-9.715-3.73-5.984 0-10.349 2.463-12.954 7.461-2.042-4.716-6.547-7.462-12.25-7.462-5.209 0-9.152 1.971-11.756 5.984v-5.14h-6.055V49.87h6.055V28.538c0-5.703 3.942-9.575 9.856-9.575 5.632 0 9.292 3.732 9.292 9.434v21.472h6.055V28.538c0-5.703 3.942-9.575 9.856-9.575 5.632 0 9.293 3.732 9.293 9.434v21.472h6.054V26.707c0-4.153-1.267-7.392-3.731-9.856Z"/><path fill="#000" fill-rule="evenodd" d="M256.095 34.24c.065-.835.125-1.609.125-2.323 0-5.35-1.831-9.786-5.491-13.376-3.591-3.59-8.167-5.42-13.588-5.42-5.42 0-9.996 1.83-13.657 5.42-3.591 3.59-5.421 8.026-5.421 13.376s1.83 9.856 5.421 13.446c3.661 3.59 8.237 5.35 13.657 5.35 8.73 0 15.77-4.927 18.375-12.32h-6.688c-1.901 4.014-6.336 6.76-11.687 6.76-3.238 0-6.054-.986-8.377-2.958-2.323-1.97-3.731-4.576-4.224-7.744h31.539l.016-.21Zm-6.352-5.21H224.61c1.197-6.195 6.125-10.348 12.531-10.348 6.407 0 11.476 4.224 12.602 10.349ZM104.929 13.965H77.614v5.843h21.26v7.04h-10.7c-3.731 0-6.829 1.127-9.293 3.45-2.464 2.253-3.66 5.069-3.66 8.448 0 3.45 1.196 6.265 3.66 8.589 2.464 2.252 5.562 3.379 9.293 3.379 4.857 0 9.081-2.112 11.334-5.491v4.646h5.421V13.965Zm-6.054 24.147c0 4.224-4.013 7.11-9.927 7.11-4.294 0-7.462-2.745-7.462-6.476 0-3.661 3.168-6.407 7.462-6.407h9.927v5.773Z" clip-rule="evenodd"/></g></g><defs><linearGradient id="c" x1="29.283" x2="29.283" y1=".416" y2="64.416" gradientUnits="userSpaceOnUse"><stop stop-color="#FFAC0B"/><stop offset="1" stop-color="#0B99FF"/></linearGradient><clipPath id="a"><path fill="#fff" d="M.66 0h255.68v64H.66z"/></clipPath></defs></svg>