<svg width="64" height="64" fill="none" xmlns="http://www.w3.org/2000/svg"><g clip-path="url(#a)"><mask id="b" style="mask-type:luminance" maskUnits="userSpaceOnUse" x="0" y="0" width="64" height="64"><path d="M64 0H0v64h64V0Z" fill="#fff"/></mask><g mask="url(#b)"><path fill-rule="evenodd" clip-rule="evenodd" d="M36.894.416 49.13 14.92l2.854 26.803-21.595 22.693L5.263 41.648l12.65-32.19L36.895.416ZM19.011 11.93l10.091 10.66-10.32 14.969-10.816 2.473L19.011 11.93ZM8.42 41.908l19.18 17.38-8.797-19.754-10.383 2.374Zm12.49-2.377 9.721 21.833L48.91 42.156l-28-2.625Zm28.841-.58-2.37-22.263-15.262 6.13 17.633 16.133ZM30.586 21.355l16.02-6.436L36.383 2.797l-16.1 7.671 10.304 10.887Zm-.083 2.596 17.704 16.2-27.12-2.542 9.416-13.658Z" fill="url(#c)"/></g></g><defs><linearGradient id="c" x1="28.623" y1=".416" x2="28.623" y2="64.416" gradientUnits="userSpaceOnUse"><stop stop-color="#FFAC0B"/><stop offset="1" stop-color="#0B99FF"/></linearGradient><clipPath id="a"><path fill="#fff" d="M0 0h64v64H0z"/></clipPath></defs></svg>