<svg xmlns="http://www.w3.org/2000/svg" width="224" height="64" fill="none"><g clip-path="url(#a)"><mask id="b" width="224" height="64" x="0" y="0" maskUnits="userSpaceOnUse" style="mask-type:luminance"><path fill="#fff" d="M223.68 0H0v64h223.68V0Z"/></mask><g mask="url(#b)"><path fill="url(#c)" d="M64 20.096v9.321C64 48.515 49.674 64 32 64S0 48.515 0 29.417v-9.321l33.402 34.54L64 20.096Z"/><path fill="url(#d)" d="M1.402 20.054c-.404 0-.804 0-1.2.032A31.52 31.52 0 0 0 0 23.626c0 17.6 14.326 31.878 32 31.878.403 0 .8 0 1.2-.029.132-1.175.2-2.357.202-3.54 0-17.606-14.327-31.88-32-31.88Z"/><path fill="url(#e)" d="M63.802 20.096c-16.932.832-30.4 14.768-30.4 31.84 0-17.6-14.327-31.882-32-31.882-.404 0-.804 0-1.2.032A31.52 31.52 0 0 0 0 23.626c0 17.6 14.326 31.878 32 31.878.403 0 .8 0 1.2-.029h.4C50.531 54.643 64 40.707 64 23.635a32.143 32.143 0 0 0-.198-3.54Z"/><path fill="#6F4A9E" d="M32 23.04c6.362 0 11.52-5.158 11.52-11.52C43.52 5.158 38.362 0 32 0c-6.362 0-11.52 5.158-11.52 11.52 0 6.362 5.158 11.52 11.52 11.52Z"/><path fill="#000" d="M198.763 20.019c3.84 0 6.95 1.171 9.331 3.514 2.381 2.304 3.571 5.644 3.571 10.022V52.16h-5.184V34.304c0-3.149-.787-5.549-2.361-7.2-1.575-1.69-3.725-2.535-6.451-2.535-2.765 0-4.973.864-6.624 2.592-1.613 1.728-2.42 4.244-2.42 7.546V52.16h-5.241V20.595h5.241v4.493c1.037-1.613 2.439-2.861 4.205-3.744 1.805-.883 3.783-1.325 5.933-1.325ZM220.17 52.506c-.998 0-1.843-.346-2.534-1.037-.691-.691-1.037-1.536-1.037-2.535 0-.998.346-1.843 1.037-2.534.691-.691 1.536-1.037 2.534-1.037.96 0 1.767.346 2.42 1.037.691.691 1.036 1.536 1.036 2.535 0 .998-.345 1.843-1.036 2.534-.653.691-1.46 1.037-2.42 1.037Z"/><path fill="#000" fill-rule="evenodd" d="M178.02 38.336c.115-1.114.173-2.17.173-3.168 0-2.88-.634-5.453-1.901-7.718-1.229-2.305-2.995-4.11-5.299-5.415-2.304-1.305-4.954-1.958-7.949-1.958-3.072 0-5.798.672-8.179 2.016-2.342 1.305-4.166 3.187-5.472 5.645-1.306 2.457-1.958 5.318-1.958 8.582 0 3.264.672 6.144 2.016 8.64 1.344 2.457 3.187 4.358 5.529 5.702 2.381 1.344 5.069 2.016 8.064 2.016 3.763 0 6.912-.94 9.447-2.822 2.534-1.92 4.224-4.397 5.068-7.43h-5.644a8.488 8.488 0 0 1-3.226 4.262c-1.498 1.037-3.379 1.555-5.645 1.555-2.765 0-5.126-.864-7.085-2.592-1.92-1.766-2.976-4.205-3.168-7.315h25.229Zm-6.566-9.389c.883 1.42 1.325 3.13 1.325 5.127h-19.93c.269-2.996 1.325-5.338 3.168-7.028 1.882-1.69 4.147-2.534 6.797-2.534 1.843 0 3.513.384 5.011 1.152a8.337 8.337 0 0 1 3.629 3.283Z" clip-rule="evenodd"/><path fill="#000" d="m130.584 47.322 9.792-26.727h5.587L133.579 52.16h-6.106l-12.384-31.565h5.645l9.85 26.727Z"/><path fill="#000" fill-rule="evenodd" d="M81.637 27.795c-1.306 2.42-1.959 5.242-1.959 8.467 0 3.188.653 6.03 1.959 8.525 1.305 2.496 3.09 4.435 5.356 5.818 2.266 1.382 4.8 2.073 7.604 2.073 2.726 0 5.107-.595 7.142-1.785 2.074-1.23 3.629-2.765 4.666-4.608v5.875h5.299V20.595h-5.299v5.76c-.999-1.805-2.516-3.302-4.551-4.493-2.035-1.19-4.435-1.785-7.2-1.785-2.803 0-5.357.672-7.66 2.016-2.266 1.344-4.052 3.244-5.357 5.702Zm23.328 2.304c.96 1.767 1.44 3.84 1.44 6.22 0 2.382-.48 4.474-1.44 6.28-.96 1.766-2.266 3.129-3.917 4.089-1.613.921-3.399 1.382-5.357 1.382-1.958 0-3.744-.46-5.357-1.382-1.613-.96-2.899-2.323-3.859-4.09-.96-1.804-1.44-3.916-1.44-6.336 0-2.38.48-4.454 1.44-6.22.96-1.767 2.246-3.11 3.86-4.033 1.612-.921 3.398-1.382 5.356-1.382 1.958 0 3.744.48 5.357 1.44 1.651.922 2.957 2.266 3.917 4.032Z" clip-rule="evenodd"/></g></g><defs><linearGradient id="c" x1="32" x2="32" y1="67.014" y2="45.974" gradientUnits="userSpaceOnUse"><stop stop-color="#FF8A11"/><stop offset="1" stop-color="#E81894"/></linearGradient><linearGradient id="d" x1="36.707" x2="10.512" y1="61.213" y2="30.534" gradientUnits="userSpaceOnUse"><stop stop-color="#B03B83"/><stop offset="1" stop-color="#6F4A9E"/></linearGradient><linearGradient id="e" x1="32" x2="32" y1="49.139" y2="26.032" gradientUnits="userSpaceOnUse"><stop stop-color="#FF8A11"/><stop offset="1" stop-color="#E81894"/></linearGradient><clipPath id="a"><path fill="#fff" d="M0 0h223.68v64H0z"/></clipPath></defs></svg>