<svg width="64" height="64" fill="none" xmlns="http://www.w3.org/2000/svg"><g clip-path="url(#a)"><mask id="b" style="mask-type:luminance" maskUnits="userSpaceOnUse" x="0" y="0" width="64" height="64"><path d="M64 0H0v64h64V0Z" fill="#fff"/></mask><g mask="url(#b)"><path d="M64 20.096v9.321C64 48.515 49.674 64 32 64S0 48.515 0 29.417v-9.321l33.402 34.54L64 20.096Z" fill="url(#c)"/><path d="M1.402 20.054c-.404 0-.804 0-1.2.032A31.52 31.52 0 0 0 0 23.626c0 17.6 14.326 31.878 32 31.878.403 0 .8 0 1.2-.029.132-1.175.2-2.357.202-3.54 0-17.606-14.327-31.88-32-31.88Z" fill="url(#d)"/><path d="M63.802 20.096c-16.932.832-30.4 14.768-30.4 31.84 0-17.6-14.327-31.882-32-31.882-.404 0-.804 0-1.2.032A31.52 31.52 0 0 0 0 23.626c0 17.6 14.326 31.878 32 31.878.403 0 .8 0 1.2-.029h.4C50.531 54.643 64 40.707 64 23.635a32.143 32.143 0 0 0-.198-3.54Z" fill="url(#e)"/><path d="M32 23.04c6.362 0 11.52-5.158 11.52-11.52C43.52 5.158 38.362 0 32 0c-6.362 0-11.52 5.158-11.52 11.52 0 6.362 5.158 11.52 11.52 11.52Z" fill="#6F4A9E"/></g></g><defs><linearGradient id="c" x1="32" y1="67.014" x2="32" y2="45.974" gradientUnits="userSpaceOnUse"><stop stop-color="#FF8A11"/><stop offset="1" stop-color="#E81894"/></linearGradient><linearGradient id="d" x1="36.707" y1="61.213" x2="10.512" y2="30.534" gradientUnits="userSpaceOnUse"><stop stop-color="#B03B83"/><stop offset="1" stop-color="#6F4A9E"/></linearGradient><linearGradient id="e" x1="32" y1="49.139" x2="32" y2="26.032" gradientUnits="userSpaceOnUse"><stop stop-color="#FF8A11"/><stop offset="1" stop-color="#E81894"/></linearGradient><clipPath id="a"><path fill="#fff" d="M0 0h64v64H0z"/></clipPath></defs></svg>