<svg xmlns="http://www.w3.org/2000/svg" width="250" height="64" fill="none"><path fill="#000" d="M78.156 48V16h20.5v4.86H83.953v8.687H97.25v4.86H83.953V48h-5.797Zm34.239.469c-2.344 0-4.375-.516-6.094-1.547-1.719-1.031-3.052-2.474-4-4.328-.938-1.854-1.406-4.021-1.406-6.5 0-2.48.468-4.651 1.406-6.516.948-1.864 2.281-3.312 4-4.344 1.719-1.03 3.75-1.547 6.094-1.547 2.343 0 4.375.516 6.093 1.547 1.719 1.032 3.047 2.48 3.985 4.344.948 1.865 1.422 4.037 1.422 6.516s-.474 4.646-1.422 6.5c-.938 1.854-2.266 3.297-3.985 4.328-1.718 1.031-3.75 1.547-6.093 1.547Zm.031-4.532c1.271 0 2.333-.348 3.187-1.046.854-.709 1.49-1.657 1.907-2.844.427-1.188.64-2.51.64-3.969 0-1.469-.213-2.797-.64-3.984-.417-1.198-1.053-2.151-1.907-2.86-.854-.708-1.916-1.062-3.187-1.062-1.302 0-2.386.354-3.25 1.062-.854.709-1.495 1.662-1.922 2.86-.417 1.187-.625 2.515-.625 3.984 0 1.458.208 2.781.625 3.969.427 1.187 1.068 2.135 1.922 2.844.864.698 1.948 1.047 3.25 1.047ZM128.695 48V24h5.485v4h.25c.437-1.385 1.187-2.453 2.25-3.203 1.073-.76 2.297-1.14 3.672-1.14.312 0 .661.015 1.046.046.396.021.724.057.985.11v5.203c-.24-.084-.62-.157-1.141-.22a10.49 10.49 0 0 0-1.484-.108c-1.031 0-1.959.224-2.781.671a4.908 4.908 0 0 0-1.922 1.828c-.469.782-.703 1.683-.703 2.704V48h-5.657Zm22.785 0-6.781-24h5.766l4.219 16.875h.218L159.215 24h5.703l4.312 16.781h.235L173.621 24h5.781l-6.797 24h-5.89l-4.5-16.219h-.328L157.387 48h-5.907Zm38.778.484c-1.521 0-2.891-.27-4.11-.812-1.208-.552-2.166-1.365-2.875-2.438-.697-1.073-1.046-2.395-1.046-3.968 0-1.355.25-2.474.75-3.36a5.807 5.807 0 0 1 2.046-2.125 10.338 10.338 0 0 1 2.922-1.203 23.772 23.772 0 0 1 3.391-.61c1.406-.145 2.547-.275 3.422-.39.875-.125 1.51-.312 1.906-.562.406-.26.609-.662.609-1.203v-.094c0-1.177-.349-2.089-1.046-2.735-.698-.646-1.704-.968-3.016-.968-1.385 0-2.484.302-3.297.906-.802.604-1.344 1.318-1.625 2.14l-5.281-.75c.416-1.458 1.104-2.677 2.062-3.656.959-.99 2.131-1.729 3.516-2.218 1.385-.5 2.917-.75 4.594-.75 1.156 0 2.307.135 3.453.406a9.704 9.704 0 0 1 3.14 1.343c.948.615 1.709 1.454 2.282 2.516.583 1.063.875 2.39.875 3.985V48h-5.438v-3.297h-.187c-.344.667-.828 1.292-1.453 1.875-.615.573-1.391 1.037-2.329 1.39-.927.344-2.015.516-3.265.516Zm1.469-4.156c1.135 0 2.119-.224 2.953-.672.833-.458 1.474-1.062 1.922-1.812a4.62 4.62 0 0 0 .687-2.453v-2.828c-.177.145-.479.28-.906.406-.417.125-.886.234-1.406.328-.521.094-1.037.177-1.547.25-.511.073-.953.135-1.328.187a9.883 9.883 0 0 0-2.266.563c-.667.26-1.193.625-1.578 1.094-.386.458-.578 1.052-.578 1.78 0 1.043.38 1.829 1.14 2.36.761.532 1.729.797 2.907.797ZM208.617 48V24h5.485v4h.25c.437-1.385 1.187-2.453 2.25-3.203 1.072-.76 2.296-1.14 3.671-1.14.313 0 .662.015 1.047.046.396.021.724.057.985.11v5.203c-.24-.084-.62-.157-1.141-.22a10.49 10.49 0 0 0-1.484-.108c-1.032 0-1.959.224-2.782.671a4.912 4.912 0 0 0-1.921 1.828c-.469.782-.704 1.683-.704 2.704V48h-5.656Zm25.363.422c-1.885 0-3.572-.484-5.062-1.453-1.49-.969-2.667-2.375-3.531-4.219-.865-1.844-1.297-4.083-1.297-6.719 0-2.666.437-4.916 1.312-6.75.886-1.843 2.078-3.234 3.578-4.172 1.5-.948 3.172-1.422 5.016-1.422 1.406 0 2.563.24 3.469.72.906.468 1.625 1.036 2.156 1.702.531.657.943 1.276 1.234 1.86h.235V16h5.672v32h-5.563v-3.781h-.344c-.291.583-.713 1.203-1.265 1.86-.552.645-1.281 1.197-2.188 1.655-.906.459-2.047.688-3.422.688Zm1.579-4.64c1.198 0 2.218-.324 3.062-.97.844-.656 1.484-1.567 1.922-2.734.437-1.167.656-2.526.656-4.078 0-1.552-.219-2.901-.656-4.047-.427-1.146-1.063-2.036-1.906-2.672-.834-.635-1.86-.953-3.078-.953-1.261 0-2.313.328-3.157.985-.843.656-1.479 1.562-1.906 2.718-.427 1.157-.641 2.48-.641 3.969 0 1.5.214 2.839.641 4.016.438 1.166 1.078 2.088 1.922 2.765.854.667 1.901 1 3.141 1Z"/><path fill="#fff" fill-rule="evenodd" d="M32.25 56.5c13.531 0 24.5-10.969 24.5-24.5S45.781 7.5 32.25 7.5 7.75 18.469 7.75 32s10.969 24.5 24.5 24.5Zm0 7.5c17.673 0 32-14.327 32-32 0-17.673-14.327-32-32-32-17.673 0-32 14.327-32 32 0 17.673 14.327 32 32 32Z" clip-rule="evenodd"/></svg>