<svg xmlns="http://www.w3.org/2000/svg" width="237" height="64" fill="none"><g clip-path="url(#a)"><mask id="b" width="237" height="64" x="0" y="0" maskUnits="userSpaceOnUse" style="mask-type:luminance"><path fill="#fff" d="M236.8 0H0v64h236.8V0Z"/></mask><g mask="url(#b)"><path fill="url(#c)" d="M20.909 25.181a12.499 12.499 0 1 1 22.08.842L32.903 43.52l3.024 5.238 11.61-20.108a17.738 17.738 0 0 0-30.72-17.738 17.532 17.532 0 0 0-1.492 14.429 19.818 19.818 0 0 1 2.438-.154l3.146-.006Z"/><path fill="url(#d)" d="M61.597 35.357a17.54 17.54 0 0 0-11.93-8.541 19.787 19.787 0 0 1-1.084 2.198l-1.58 2.736a12.5 12.5 0 1 1-11.591 18.727l-10.07-17.44h-6.046l11.578 20.057c.398.685.84 1.343 1.322 1.971l.096.125a17.516 17.516 0 0 0 13.942 6.772 17.736 17.736 0 0 0 15.36-26.605h.003Z"/><path fill="url(#e)" d="M28.208 51.091a12.496 12.496 0 0 1-22.941-6.864 12.501 12.501 0 0 1 12.496-12.502h20.183l3.014-5.236H17.763a17.738 17.738 0 1 0 0 35.472 17.526 17.526 0 0 0 13.392-6.099c-.517-.668-.99-1.37-1.414-2.102l-1.533-2.669Z"/><path fill="#000" d="m107.572 51.846-.922-4.377-.461-.173c-.345.23-.806.403-1.324.403-.922 0-1.728-.518-2.708-1.613l-8.294-9.734 11.405-12.269-.173-.403h-6.74L86.434 36.813v-23.27l-.461-.346-5.818.864V52.48h6.279v-9.562l2.822-3.052 8.122 9.792c1.728 2.13 3.917 3.513 6.681 3.513 1.44 0 2.535-.345 3.283-.864l.231-.46Z"/><path fill="#000" fill-rule="evenodd" d="M189.581 22.989c8.755 0 14.688 6.681 14.688 15.091s-5.933 15.091-14.688 15.091c-4.089 0-7.545-1.67-10.022-4.205v3.514h-5.645V14.118l5.875-.864.403.288v13.076c2.42-2.247 5.645-3.63 9.389-3.63Zm-.749 24.71c5.415 0 8.986-4.262 8.986-9.619 0-5.3-3.571-9.62-8.986-9.62-5.068 0-9.1 3.342-9.1 9.62 0 6.278 4.032 9.62 9.1 9.62ZM235.655 47.526l.921 4.263-.23.403c-.806.576-2.016.98-3.456.98-2.592 0-4.493-1.383-5.242-3.745-2.476 2.362-6.048 3.744-9.849 3.744-5.933 0-11.405-3.283-11.405-9.504 0-6.394 5.76-9.331 12.845-9.331 3.11 0 5.529.576 7.603 1.325v-1.613c0-4.147-3.744-6.163-7.718-6.163-3.284 0-5.818 1.382-7.834 3.34h-.461l-3.168-2.995v-.46c3.111-2.996 7.085-4.781 12.039-4.781 6.22 0 13.305 2.765 13.305 11.059v11.117c0 1.555.288 2.534 1.325 2.534.403 0 .691-.173.922-.346l.403.173Zm-8.813-5.472v-2.13c-1.498-.577-3.974-1.326-6.797-1.326-4.55 0-7.373 1.959-7.373 5.07 0 3.282 3.111 4.895 6.394 4.895 3.974 0 7.776-2.477 7.776-6.509Z" clip-rule="evenodd"/><path fill="#000" d="M168.248 35.142c0-7.2-4.666-12.153-11.981-12.153-3.859 0-7.142 1.382-9.389 3.629-.749-2.304-2.534-3.63-5.184-3.63-1.497 0-2.765.404-3.571.98l-.23.403.921 4.263.403.172c.231-.172.519-.345.922-.345 1.094 0 1.325.979 1.325 2.534V52.48h6.336V35.66c0-4.377 2.937-7.257 7.257-7.257s6.912 2.88 6.912 7.258V52.48h6.279V35.142Z"/><path fill="#000" fill-rule="evenodd" d="m136.326 47.526.922 4.263-.231.403c-.806.576-2.016.98-3.456.98-2.592 0-4.492-1.383-5.241-3.745-2.477 2.362-6.048 3.744-9.85 3.744-5.933 0-11.405-3.283-11.405-9.504 0-6.394 5.76-9.331 12.845-9.331 3.111 0 5.53.576 7.603 1.325v-1.613c0-4.147-3.744-6.163-7.718-6.163-3.283 0-5.818 1.382-7.834 3.34h-.46l-3.168-2.995v-.46c3.11-2.996 7.084-4.781 12.038-4.781 6.221 0 13.306 2.765 13.306 11.059v11.117c0 1.555.288 2.534 1.324 2.534.404 0 .692-.173.922-.346l.403.173Zm-8.813-5.472v-2.13c-1.497-.577-3.974-1.326-6.796-1.326-4.551 0-7.373 1.959-7.373 5.07 0 3.282 3.11 4.895 6.393 4.895 3.975 0 7.776-2.477 7.776-6.509Z" clip-rule="evenodd"/></g></g><defs><linearGradient id="c" x1="20.701" x2="46.599" y1="4.803" y2="36.486" gradientUnits="userSpaceOnUse"><stop stop-color="#B03B83"/><stop offset=".56" stop-color="#E72E6C"/><stop offset="1" stop-color="#FFC400"/></linearGradient><linearGradient id="d" x1="32.209" x2="60.129" y1="29.021" y2="59.283" gradientUnits="userSpaceOnUse"><stop stop-color="#D83B83"/><stop offset="1" stop-color="#6F4A9E"/></linearGradient><linearGradient id="e" x1="2.919" x2="40.243" y1="50.809" y2="34.256" gradientUnits="userSpaceOnUse"><stop stop-color="#9C2383"/><stop offset="1" stop-color="#E72E6C"/></linearGradient><clipPath id="a"><path fill="#fff" d="M0 0h236.8v64H0z"/></clipPath></defs></svg>