<svg width="64" height="64" fill="none" xmlns="http://www.w3.org/2000/svg"><g clip-path="url(#a)"><mask id="b" style="mask-type:luminance" maskUnits="userSpaceOnUse" x="0" y="0" width="64" height="64"><path d="M64 0H0v64h64V0Z" fill="#fff"/></mask><g mask="url(#b)"><path d="M20.909 25.181a12.499 12.499 0 1 1 22.08.842L32.903 43.52l3.024 5.238 11.61-20.108a17.738 17.738 0 0 0-30.72-17.738 17.532 17.532 0 0 0-1.492 14.429 19.818 19.818 0 0 1 2.438-.154l3.146-.006Z" fill="url(#c)"/><path d="M61.597 35.357a17.54 17.54 0 0 0-11.93-8.541 19.787 19.787 0 0 1-1.084 2.198l-1.58 2.736a12.5 12.5 0 1 1-11.591 18.727l-10.07-17.44h-6.046l11.578 20.057c.398.685.84 1.343 1.322 1.971l.096.125a17.516 17.516 0 0 0 13.942 6.772 17.736 17.736 0 0 0 15.36-26.605h.003Z" fill="url(#d)"/><path d="M28.208 51.091a12.496 12.496 0 0 1-22.941-6.864 12.501 12.501 0 0 1 12.496-12.502h20.183l3.014-5.236H17.763a17.738 17.738 0 1 0 0 35.472 17.526 17.526 0 0 0 13.392-6.099c-.517-.668-.99-1.37-1.414-2.102l-1.533-2.669Z" fill="url(#e)"/></g></g><defs><linearGradient id="c" x1="20.701" y1="4.803" x2="46.599" y2="36.486" gradientUnits="userSpaceOnUse"><stop stop-color="#B03B83"/><stop offset=".56" stop-color="#E72E6C"/><stop offset="1" stop-color="#FFC400"/></linearGradient><linearGradient id="d" x1="32.209" y1="29.021" x2="60.129" y2="59.283" gradientUnits="userSpaceOnUse"><stop stop-color="#D83B83"/><stop offset="1" stop-color="#6F4A9E"/></linearGradient><linearGradient id="e" x1="2.919" y1="50.809" x2="40.243" y2="34.256" gradientUnits="userSpaceOnUse"><stop stop-color="#9C2383"/><stop offset="1" stop-color="#E72E6C"/></linearGradient><clipPath id="a"><path fill="#fff" d="M0 0h64v64H0z"/></clipPath></defs></svg>