<svg xmlns="http://www.w3.org/2000/svg" width="250" height="64" fill="none"><g clip-path="url(#a)"><mask id="b" width="250" height="64" x="0" y="0" maskUnits="userSpaceOnUse" style="mask-type:luminance"><path fill="#fff" d="M249.8 0H.2v64h249.6V0Z"/></mask><g mask="url(#b)"><mask id="c" width="65" height="64" x="0" y="0" maskUnits="userSpaceOnUse" style="mask-type:luminance"><path fill="#fff" d="M64.2 64V0H.2v64h64Z"/></mask><g mask="url(#c)"><path fill="url(#d)" d="M.2 0a31.993 31.993 0 0 0 9.368 22.627c6 6.002 14.14 9.376 22.627 9.378V0H.2Zm31.995 32.005H64.2V0a32.01 32.01 0 0 0-22.635 9.373 31.993 31.993 0 0 0-9.37 22.632Zm0 0V64H64.2a31.987 31.987 0 0 0-19.757-29.56 32.007 32.007 0 0 0-12.248-2.435Zm0 0H.2V64a32.005 32.005 0 0 0 22.625-9.373c6-6 9.37-14.137 9.37-22.622Z"/></g><path fill="#000" d="M249.488 10.352V52.26h-4.781V10.352h4.781ZM224.526 52.709c-2.944 0-5.409-.76-7.397-2.278-1.968-1.52-2.953-3.76-2.953-6.722 0-1.707.328-3.094.985-4.163a7.122 7.122 0 0 1 2.672-2.503c1.124-.619 2.39-1.088 3.796-1.406a46.982 46.982 0 0 1 4.36-.76c1.894-.262 3.384-.459 4.471-.59 1.088-.132 1.857-.347 2.307-.647.468-.3.703-.825.703-1.575v-.281c0-1.613-.581-2.944-1.744-3.994-1.144-1.05-2.756-1.575-4.837-1.575-2.063 0-3.76.506-5.091 1.519-1.312.993-2.025 2.23-2.138 3.712h-4.865c.094-1.819.656-3.431 1.687-4.837 1.032-1.425 2.438-2.55 4.219-3.375 1.781-.825 3.844-1.238 6.188-1.238 3.468 0 6.215.9 8.24 2.7 2.044 1.781 3.066 4.144 3.066 7.088v20.475h-4.725v-4.22h-.113c-.356.713-.881 1.435-1.575 2.167-.693.712-1.631 1.312-2.812 1.8-1.163.468-2.644.703-4.444.703Zm.675-4.276c1.95 0 3.535-.346 4.753-1.04 1.219-.712 2.11-1.631 2.672-2.756a7.994 7.994 0 0 0 .844-3.629v-3.712c-.356.337-1.303.647-2.841.928-1.537.263-3.159.516-4.865.76-1.144.15-2.232.412-3.263.787-1.012.356-1.837.872-2.475 1.547-.637.656-.956 1.547-.956 2.672 0 1.387.544 2.475 1.631 3.262 1.106.788 2.606 1.181 4.5 1.181ZM187.639 64.015v-4.219h2.926c1.762 0 3.103-1.19 4.021-3.572l1.632-4.218-11.504-29.447h5.175l6.413 17.1a174.02 174.02 0 0 1 1.209 3.347c.413 1.106.807 2.212 1.182 3.318l1.181-3.318c.413-1.126.825-2.241 1.237-3.347l6.3-17.1h5.091L198.805 57.77c-.769 1.988-1.865 3.525-3.291 4.612-1.425 1.088-3.075 1.632-4.949 1.632h-2.926ZM176.122 52.26V22.558h4.781v29.7h-4.781Zm2.391-35.495c-.9 0-1.669-.319-2.307-.956a3.145 3.145 0 0 1-.956-2.306c0-.9.319-1.669.956-2.306a3.145 3.145 0 0 1 2.307-.957c.9 0 1.668.319 2.306.957.637.637.956 1.406.956 2.306 0 .9-.319 1.668-.956 2.306a3.143 3.143 0 0 1-2.306.956ZM155.492 52.821c-2.569 0-4.828-.647-6.778-1.94-1.931-1.313-3.431-3.122-4.5-5.428-1.069-2.326-1.603-5.007-1.603-8.044 0-3.056.534-5.738 1.603-8.044 1.069-2.325 2.569-4.134 4.5-5.428 1.95-1.294 4.209-1.94 6.778-1.94 1.931 0 3.722.412 5.372 1.237 1.65.806 2.953 2.043 3.909 3.712h.057V10.352h4.781V52.26h-4.669v-4.5h-.056c-1.069 1.706-2.419 2.98-4.05 3.825-1.631.825-3.413 1.237-5.344 1.237Zm.731-4.303c2.757 0 4.941-1.012 6.554-3.037 1.631-2.025 2.446-4.716 2.446-8.072 0-3.356-.815-6.047-2.446-8.072-1.613-2.044-3.797-3.066-6.554-3.066-2.568 0-4.678.947-6.328 2.84-1.631 1.895-2.447 4.66-2.447 8.298 0 3.637.816 6.403 2.447 8.297 1.65 1.874 3.76 2.812 6.328 2.812ZM123.949 52.709c-2.943 0-5.409-.76-7.397-2.278-1.969-1.52-2.953-3.76-2.953-6.722 0-1.707.328-3.094.984-4.163a7.144 7.144 0 0 1 2.672-2.503c1.125-.619 2.391-1.088 3.797-1.406a46.982 46.982 0 0 1 4.36-.76c1.893-.262 3.384-.459 4.472-.59 1.087-.132 1.856-.347 2.306-.647.469-.3.703-.825.703-1.575v-.281c0-1.613-.581-2.944-1.744-3.994-1.143-1.05-2.756-1.575-4.837-1.575-2.063 0-3.76.506-5.091 1.519-1.312.993-2.025 2.23-2.137 3.712h-4.866c.094-1.819.656-3.431 1.687-4.837 1.032-1.425 2.438-2.55 4.219-3.375 1.781-.825 3.844-1.238 6.188-1.238 3.468 0 6.215.9 8.24 2.7 2.044 1.781 3.066 4.144 3.066 7.088v20.475h-4.725v-4.22h-.113c-.356.713-.881 1.435-1.574 2.167-.694.712-1.632 1.312-2.813 1.8-1.163.468-2.644.703-4.444.703Zm.675-4.276c1.95 0 3.534-.346 4.753-1.04 1.219-.712 2.11-1.631 2.672-2.756a7.994 7.994 0 0 0 .844-3.629v-3.712c-.356.337-1.303.647-2.841.928-1.537.263-3.159.516-4.865.76-1.144.15-2.232.412-3.263.787-1.012.356-1.837.872-2.475 1.547-.637.656-.956 1.547-.956 2.672 0 1.387.544 2.475 1.631 3.262 1.106.788 2.606 1.181 4.5 1.181ZM80.2 52.259V10.352h15.553c4.369 0 7.828 1.144 10.378 3.432 2.569 2.268 3.854 5.362 3.854 9.281 0 2.981-.807 5.503-2.419 7.566-1.594 2.062-3.759 3.515-6.497 4.36l9.422 17.268h-5.906l-8.831-16.453H85.263v16.453H80.2Zm5.063-20.953H95.64c2.906 0 5.184-.732 6.834-2.194 1.669-1.481 2.503-3.497 2.503-6.047s-.843-4.556-2.531-6.019c-1.669-1.462-3.956-2.194-6.862-2.194H85.263v16.454Z"/></g></g><defs><linearGradient id="d" x1="-8.44" x2="72.84" y1="59.2" y2="4.8" gradientUnits="userSpaceOnUse"><stop stop-color="#DD37E0"/><stop offset="1" stop-color="#0BA7FF"/></linearGradient><clipPath id="a"><path fill="#fff" d="M.2 0h249.6v64H.2z"/></clipPath></defs></svg>