<svg width="64" height="64" fill="none" xmlns="http://www.w3.org/2000/svg"><rect x="1.28" y="1.28" width="61.44" height="61.44" rx="8.96" fill="url(#a)" stroke="url(#b)" stroke-width="2.56"/><path fill-rule="evenodd" clip-rule="evenodd" d="M42.585 34.094a1.28 1.28 0 0 1 1.767.547l7.992 15.984a1.28 1.28 0 0 1-1.145 1.852H29.41a1.28 1.28 0 0 1-1.097-.62l-3.744-6.24a1.28 1.28 0 0 1 .476-1.778l17.541-9.745Zm-2.572-5.393a1.28 1.28 0 0 0 .523-1.691l-7.39-14.781c-.472-.944-1.818-.944-2.29 0l-11.65 23.299a1.28 1.28 0 0 0 .048 1.23l.926 1.545a1.28 1.28 0 0 0 1.72.46l18.113-10.062ZM14.627 44.687a1.28 1.28 0 0 1 2.242-.086l3.563 5.938a1.28 1.28 0 0 1-1.098 1.938h-6.531a1.28 1.28 0 0 1-1.145-1.852l2.969-5.938Z" fill="url(#c)"/><defs><linearGradient id="b" x1="60.8" y1="-14.72" x2="-3.2" y2="76.8" gradientUnits="userSpaceOnUse"><stop stop-color="#FDF5F5"/><stop offset="1" stop-color="#F8F8F8"/></linearGradient><linearGradient id="c" x1="57.844" y1="13.937" x2="9.084" y2="55.384" gradientUnits="userSpaceOnUse"><stop stop-color="#F9F9F9"/><stop offset="1" stop-color="#EBEBEB"/></linearGradient><radialGradient id="a" cx="0" cy="0" r="1" gradientUnits="userSpaceOnUse" gradientTransform="rotate(45.1) scale(52.9845 78.7909)"><stop stop-color="#0E1724"/><stop offset="1" stop-color="#0B121C"/></radialGradient></defs></svg>