<svg xmlns="http://www.w3.org/2000/svg" width="206" height="64" fill="none"><rect width="61.44" height="61.44" x="1.28" y="1.28" fill="url(#a)" stroke="url(#b)" stroke-width="2.56" rx="8.96"/><path fill="url(#c)" fill-rule="evenodd" d="M42.585 34.094a1.28 1.28 0 0 1 1.767.547l7.992 15.984a1.28 1.28 0 0 1-1.145 1.852H29.41a1.28 1.28 0 0 1-1.097-.62l-3.744-6.24a1.28 1.28 0 0 1 .476-1.778l17.541-9.745Zm-2.572-5.393a1.28 1.28 0 0 0 .523-1.691l-7.39-14.781c-.472-.944-1.818-.944-2.29 0l-11.65 23.299a1.28 1.28 0 0 0 .048 1.23l.926 1.545a1.28 1.28 0 0 0 1.72.46l18.113-10.062ZM14.627 44.687a1.28 1.28 0 0 1 2.242-.086l3.563 5.938a1.28 1.28 0 0 1-1.098 1.938h-6.531a1.28 1.28 0 0 1-1.145-1.852l2.969-5.938Z" clip-rule="evenodd"/><path fill="#000" d="M85.623 49.286V18.2H97.28c6.72 0 10.971 3.474 10.971 8.96 0 3.52-1.6 5.988-4.388 7.36 1.828.96 2.834 2.651 3.52 5.44l2.331 9.326h-5.394l-1.874-8.32c-.823-3.566-2.195-4.252-5.623-4.252h-6.08v12.572h-5.12Zm11.52-26.972h-6.4V32.6h6.308c3.795 0 5.943-2.012 5.943-5.166 0-3.108-2.148-5.12-5.851-5.12Zm38.532 19.017c-1.326 5.669-5.532 8.549-11.246 8.549-7.177 0-11.566-4.8-11.566-12.754 0-8.275 4.389-12.846 11.337-12.846 7.04 0 11.292 4.754 11.292 12.571v1.189h-17.646c.274 4.983 2.606 7.771 6.583 7.771 3.108 0 5.303-1.462 6.126-4.48h5.12ZM124.2 28.348c-3.52 0-5.623 2.24-6.217 6.355h12.434c-.594-4.115-2.742-6.355-6.217-6.355Zm21.082 30.995h-4.891V24.92h4.891v2.926c1.555-2.286 3.84-3.566 6.629-3.566 6.446 0 10.331 4.8 10.331 12.754 0 8.275-3.977 12.846-10.331 12.846-2.789 0-5.074-1.143-6.629-3.383v12.846Zm6.035-30.949c-3.932 0-6.035 3.063-6.035 8.64s2.195 8.732 6.035 8.732c3.84 0 5.943-3.109 5.943-8.732 0-5.531-2.195-8.64-5.943-8.64Zm15.681 20.892V16.37h4.892v32.915h-4.892Zm12.541 10.651c-1.052 0-2.149-.274-2.697-.457V55.73h1.325c2.789 0 3.84-.548 5.943-5.623l.732-1.69-9.783-23.498h5.257l6.034 15.177 1.052 3.337 1.051-3.337 5.852-15.177h4.982l-11.062 27.2c-2.469 6.08-4.343 7.817-8.686 7.817Z"/><defs><linearGradient id="b" x1="60.8" x2="-3.2" y1="-14.72" y2="76.8" gradientUnits="userSpaceOnUse"><stop stop-color="#FDF5F5"/><stop offset="1" stop-color="#F8F8F8"/></linearGradient><linearGradient id="c" x1="57.844" x2="9.084" y1="13.937" y2="55.384" gradientUnits="userSpaceOnUse"><stop stop-color="#F9F9F9"/><stop offset="1" stop-color="#EBEBEB"/></linearGradient><radialGradient id="a" cx="0" cy="0" r="1" gradientTransform="rotate(45.1) scale(52.9845 78.7909)" gradientUnits="userSpaceOnUse"><stop stop-color="#0E1724"/><stop offset="1" stop-color="#0B121C"/></radialGradient></defs></svg>