<svg xmlns="http://www.w3.org/2000/svg" width="205" height="64" fill="none"><g clip-path="url(#a)"><path fill="url(#b)" d="M64.8.1c-17.573 17.682-17.54 46.26.1 63.9C47.26 46.36 18.682 46.327 1 63.9 18.573 46.217 18.54 17.64.9 0c17.64 17.64 46.218 17.673 63.9.1Z"/><path fill="#000" d="M200.825 10.586h-6.054V2.56h6.054v8.026ZM200.825 54.163h-6.054V17.415h6.054v36.748ZM178.524 17.415h9.542v5.068h-8.979v31.68h-6.125V22.835c0-3.59 1.83-5.42 5.562-5.42Z"/><path fill="#000" fill-rule="evenodd" d="M148.202 32.269c-8.377 0-13.376 4.083-13.376 11.334 0 6.83 4.435 11.264 11.827 11.264 5.984 0 10.912-2.604 12.532-6.758h.422l.07 1.9c.212 2.746 1.408 4.154 4.788 4.154h3.385v-4.505h-2.541V29.594c0-1.69-.07-3.239-1.196-5.844a11.722 11.722 0 0 0-2.253-3.45c-1.901-1.97-5.703-3.59-10.56-3.59-8.941 0-14.573 4.365-14.925 11.687h5.984c.211-4.224 3.168-6.829 8.589-6.829 5.561 0 8.307 2.605 8.307 7.885v2.816h-11.053Zm-7.11 12.038v-2.253c0-3.168 2.816-5.35 7.673-5.35h10.49v1.971c0 6.759-4.365 11.264-11.194 11.264-4.224 0-6.969-1.97-6.969-5.632Z" clip-rule="evenodd"/><path fill="#000" d="M121.892 22.483v26.612h7.744v5.068h-8.448c-3.591 0-5.351-1.69-5.351-5.139v-26.54h-6.688v-5.07h6.688V5.236h6.055v12.18h7.673v5.068h-7.673ZM82.474 43.04H76.42c0 7.11 5.702 11.827 14.995 11.827 8.941 0 14.643-4.224 14.643-11.264 0-5.49-3.238-8.8-9.645-9.926l-7.25-1.338c-1.48-.281-2.113-.492-3.591-1.126-1.478-.774-2.323-2.183-2.323-4.154 0-3.45 2.745-5.632 7.744-5.632 5.21 0 7.885 2.183 8.025 6.477h6.055c-.071-6.758-5.35-11.194-14.08-11.194-8.448 0-13.87 4.154-13.87 10.983 0 5.28 3.24 8.518 9.786 9.715l7.885 1.478c3.239.634 4.858 2.324 4.858 5.07 0 3.871-3.098 6.124-8.237 6.124-5.42 0-8.94-2.745-8.94-7.04Z"/></g><defs><linearGradient id="b" x1="86.84" x2="71.401" y1="57.517" y2="-18.557" gradientUnits="userSpaceOnUse"><stop stop-color="#FFD80A"/><stop offset="1" stop-color="#DC7CB0"/></linearGradient><clipPath id="a"><path fill="#fff" d="M.9 0h203.2v64H.9z"/></clipPath></defs></svg>