<svg width="126" height="90" fill="none" xmlns="http://www.w3.org/2000/svg"><path fill="url(#a)" d="M0 0h126v90H0z"/><mask id="e" fill="#fff"><path d="M0 0h20.127v90H0V0Z"/></mask><path d="M0 0h20.127v90H0V0Z" fill="url(#b)"/><path d="M0 0h20.127v90H0V0Z" fill="url(#c)" fill-opacity=".2"/><path d="M20.04 0v90h.175V0h-.176Z" fill="url(#d)" mask="url(#e)"/><rect x="22.577" y="1.45" width="24.346" height="10.459" rx="1.011" fill="url(#f)"/><rect x="22.577" y="1.45" width="24.346" height="10.459" rx="1.011" fill="url(#g)" fill-opacity=".2"/><rect x="22.577" y="1.45" width="24.346" height="10.459" rx="1.011" stroke="url(#h)" stroke-width=".088"/><rect x="48.329" y="1.45" width="24.346" height="10.459" rx="1.011" fill="url(#i)"/><rect x="48.329" y="1.45" width="24.346" height="10.459" rx="1.011" fill="url(#j)" fill-opacity=".2"/><rect x="48.329" y="1.45" width="24.346" height="10.459" rx="1.011" stroke="url(#k)" stroke-width=".088"/><rect x="73.081" y="1.45" width="24.346" height="10.459" rx="1.011" fill="url(#l)"/><rect x="73.081" y="1.45" width="24.346" height="10.459" rx="1.011" fill="url(#m)" fill-opacity=".2"/><rect x="73.081" y="1.45" width="24.346" height="10.459" rx="1.011" stroke="url(#n)" stroke-width=".088"/><rect x="98.921" y="1.45" width="26.279" height="23.291" rx="1.011" fill="url(#o)"/><rect x="98.921" y="1.45" width="26.279" height="23.291" rx="1.011" fill="url(#p)" fill-opacity=".2"/><rect x="98.921" y="1.45" width="26.279" height="23.291" rx="1.011" stroke="url(#q)" stroke-width=".088"/><rect x="98.921" y="26.235" width="26.279" height="27.773" rx="1.011" fill="url(#r)"/><rect x="98.921" y="26.235" width="26.279" height="27.773" rx="1.011" fill="url(#s)" fill-opacity=".2"/><rect x="98.921" y="26.235" width="26.279" height="27.773" rx="1.011" stroke="url(#t)" stroke-width=".088"/><rect x="22.577" y="13.403" width="75.85" height="40.605" rx="1.011" fill="url(#u)"/><rect x="22.577" y="13.403" width="75.85" height="40.605" rx="1.011" fill="url(#v)" fill-opacity=".2"/><rect x="22.577" y="13.403" width="75.85" height="40.605" rx="1.011" stroke="url(#w)" stroke-width=".088"/><rect x="22.577" y="55.503" width="33.574" height="31.641" rx="1.011" fill="url(#x)"/><rect x="22.577" y="55.503" width="33.574" height="31.641" rx="1.011" fill="url(#y)" fill-opacity=".2"/><rect x="22.577" y="55.503" width="33.574" height="31.641" rx="1.011" stroke="url(#z)" stroke-width=".088"/><rect x="57.645" y="55.503" width="33.574" height="31.641" rx="1.011" fill="url(#A)"/><rect x="57.645" y="55.503" width="33.574" height="31.641" rx="1.011" fill="url(#B)" fill-opacity=".2"/><rect x="57.645" y="55.503" width="33.574" height="31.641" rx="1.011" stroke="url(#C)" stroke-width=".088"/><rect x="91.714" y="55.503" width="33.574" height="31.641" rx="1.011" fill="url(#D)"/><rect x="91.714" y="55.503" width="33.574" height="31.641" rx="1.011" fill="url(#E)" fill-opacity=".2"/><rect x="91.714" y="55.503" width="33.574" height="31.641" rx="1.011" stroke="url(#F)" stroke-width=".088"/><rect x="24.027" y="4.395" width="6.416" height="1.406" rx=".352" fill="#fff" fill-opacity=".21"/><rect x="1.406" y="4.482" width="17.578" height="2.285" rx=".352" fill="#fff" fill-opacity=".21"/><rect x="1.406" y="1.406" width="12.129" height="2.461" rx=".352" fill="#fff" fill-opacity=".21"/><rect x="16.523" y="1.406" width="2.461" height="2.461" rx=".352" fill="#fff" fill-opacity=".21"/><rect x="1.406" y="7.295" width="17.578" height="2.285" rx=".352" fill="#fff" fill-opacity=".21"/><rect x="1.406" y="77.871" width="17.578" height="2.285" rx=".352" fill="#fff" fill-opacity=".21"/><rect x="1.406" y="10.107" width="17.578" height="2.285" rx=".352" fill="#fff" fill-opacity=".21"/><rect x="1.406" y="80.684" width="17.578" height="2.285" rx=".352" fill="#fff" fill-opacity=".21"/><rect x="1.406" y="12.92" width="17.578" height="2.285" rx=".352" fill="#fff" fill-opacity=".21"/><rect x="1.406" y="83.496" width="17.578" height="2.285" rx=".352" fill="#fff" fill-opacity=".21"/><rect x="1.406" y="15.732" width="17.578" height="2.285" rx=".352" fill="#fff" fill-opacity=".21"/><rect x="1.406" y="86.309" width="17.578" height="2.285" rx=".352" fill="#fff" fill-opacity=".21"/><rect x="47.582" y="57.393" width="6.855" height="1.406" rx=".352" fill="#fff" fill-opacity=".21"/><rect x="28.07" y="51.065" width="5.098" height="1.406" rx=".352" fill="#fff" fill-opacity=".21"/><rect x="23.676" y="49.307" width="3.516" height="1.406" rx=".352" fill="#fff" fill-opacity=".21"/><rect x="23.676" y="44.385" width="3.516" height="1.406" rx=".352" fill="#fff" fill-opacity=".21"/><rect x="23.676" y="39.463" width="3.516" height="1.406" rx=".352" fill="#fff" fill-opacity=".21"/><rect x="23.676" y="34.541" width="3.516" height="1.406" rx=".352" fill="#fff" fill-opacity=".21"/><rect x="23.676" y="29.619" width="3.516" height="1.406" rx=".352" fill="#fff" fill-opacity=".21"/><rect x="23.676" y="24.697" width="3.516" height="1.406" rx=".352" fill="#fff" fill-opacity=".21"/><rect x="35.453" y="51.065" width="5.977" height="1.406" rx=".352" fill="#fff" fill-opacity=".21"/><rect x="43.715" y="51.065" width="5.801" height="1.406" rx=".352" fill="#fff" fill-opacity=".21"/><rect x="51.801" y="51.065" width="5.449" height="1.406" rx=".352" fill="#fff" fill-opacity=".21"/><rect x="59.535" y="51.065" width="5.625" height="1.406" rx=".352" fill="#fff" fill-opacity=".21"/><rect x="66.445" y="51.065" width="5.801" height="1.406" rx=".352" fill="#fff" fill-opacity=".21"/><rect x="74.531" y="51.065" width="5.625" height="1.406" rx=".352" fill="#fff" fill-opacity=".21"/><rect x="82.441" y="51.065" width="5.625" height="1.406" rx=".352" fill="#fff" fill-opacity=".21"/><rect x="90.352" y="51.065" width="5.625" height="1.406" rx=".352" fill="#fff" fill-opacity=".21"/><rect x="81.563" y="57.393" width="6.855" height="1.406" rx=".352" fill="#fff" fill-opacity=".21"/><rect x="116.631" y="57.393" width="6.855" height="1.406" rx=".352" fill="#fff" fill-opacity=".21"/><rect x="49.691" y="4.395" width="7.734" height="1.406" rx=".352" fill="#fff" fill-opacity=".21"/><rect x="74.356" y="4.395" width="7.734" height="1.406" rx=".352" fill="#fff" fill-opacity=".21"/><rect x="100.371" y="3.164" width="8.438" height="1.406" rx=".352" fill="#fff" fill-opacity=".21"/><rect x="100.371" y="10.02" width="4.131" height="1.406" rx=".352" fill="#fff" fill-opacity=".21"/><rect x="24.643" y="60.908" width="5.273" height="1.406" rx=".352" fill="#fff" fill-opacity=".21"/><rect x="59.623" y="60.908" width="8.086" height="1.406" rx=".352" fill="#fff" fill-opacity=".21"/><rect x="93.691" y="60.908" width="8.086" height="1.406" rx=".352" fill="#fff" fill-opacity=".21"/><rect x="100.371" y="12.305" width="6.416" height="1.406" rx=".352" fill="#fff" fill-opacity=".21"/><rect x="24.643" y="63.018" width="8.086" height="2.109" rx=".352" fill="#fff" fill-opacity=".21"/><rect x="59.623" y="63.018" width="14.238" height="2.109" rx=".352" fill="#fff" fill-opacity=".21"/><rect x="93.691" y="63.018" width="9.492" height="2.109" rx=".352" fill="#fff" fill-opacity=".21"/><rect x="24.643" y="66.357" width="10.195" height="2.109" rx=".352" fill="#fff" fill-opacity=".21"/><rect x="59.623" y="66.357" width="14.502" height="2.109" rx=".352" fill="#fff" fill-opacity=".21"/><rect x="93.691" y="66.357" width="8.789" height="2.109" rx=".352" fill="#fff" fill-opacity=".21"/><rect x="24.643" y="69.697" width="8.086" height="2.109" rx=".352" fill="#fff" fill-opacity=".21"/><rect x="59.623" y="69.697" width="14.502" height="2.109" rx=".352" fill="#fff" fill-opacity=".21"/><rect x="93.691" y="69.697" width="8.789" height="2.109" rx=".352" fill="#fff" fill-opacity=".21"/><rect x="24.643" y="73.037" width="6.592" height="2.109" rx=".352" fill="#fff" fill-opacity=".21"/><rect x="59.623" y="73.037" width="12.832" height="2.109" rx=".352" fill="#fff" fill-opacity=".21"/><rect x="93.691" y="73.037" width="12.48" height="2.109" rx=".352" fill="#fff" fill-opacity=".21"/><rect x="24.643" y="76.377" width="8.086" height="2.109" rx=".352" fill="#fff" fill-opacity=".21"/><rect x="59.623" y="76.377" width="9.316" height="2.109" rx=".352" fill="#fff" fill-opacity=".21"/><rect x="93.691" y="76.377" width="10.02" height="2.109" rx=".352" fill="#fff" fill-opacity=".21"/><rect x="24.643" y="79.717" width="7.822" height="2.109" rx=".352" fill="#fff" fill-opacity=".21"/><rect x="59.623" y="79.717" width="10.723" height="2.109" rx=".352" fill="#fff" fill-opacity=".21"/><rect x="93.691" y="79.717" width="7.031" height="2.109" rx=".352" fill="#fff" fill-opacity=".21"/><rect x="24.643" y="83.057" width="6.592" height="2.109" rx=".352" fill="#fff" fill-opacity=".21"/><rect x="59.623" y="83.057" width="14.238" height="2.109" rx=".352" fill="#fff" fill-opacity=".21"/><rect x="93.691" y="83.057" width="7.559" height="2.109" rx=".352" fill="#fff" fill-opacity=".21"/><rect x="100.371" y="14.766" width="8.438" height="1.406" rx=".352" fill="#fff" fill-opacity=".21"/><rect x="100.371" y="17.227" width="7.559" height="1.406" rx=".352" fill="#fff" fill-opacity=".21"/><rect x="109.512" y="12.305" width="2.637" height="1.406" rx=".352" fill="#fff" fill-opacity=".21"/><rect x="109.512" y="14.766" width="3.604" height="1.406" rx=".352" fill="#fff" fill-opacity=".21"/><rect x="109.512" y="17.227" width="2.637" height="1.406" rx=".352" fill="#fff" fill-opacity=".21"/><rect x="119.443" y="12.305" width="4.043" height="1.406" rx=".352" fill="#fff" fill-opacity=".21"/><rect x="40.727" y="63.369" width="6.855" height="1.406" rx=".352" fill="#fff" fill-opacity=".21"/><rect x="74.707" y="63.369" width="6.855" height="1.406" rx=".352" fill="#fff" fill-opacity=".21"/><rect x="110.83" y="63.369" width="5.977" height="1.406" rx=".352" fill="#fff" fill-opacity=".21"/><rect x="42.309" y="66.709" width="5.273" height="1.406" rx=".352" fill="#fff" fill-opacity=".21"/><rect x="75.938" y="66.709" width="5.625" height="1.406" rx=".352" fill="#fff" fill-opacity=".21"/><rect x="110.391" y="66.709" width="6.24" height="1.406" rx=".352" fill="#fff" fill-opacity=".21"/><rect x="44.242" y="70.049" width="3.34" height="1.406" rx=".352" fill="#fff" fill-opacity=".21"/><rect x="75.234" y="70.049" width="6.328" height="1.406" rx=".352" fill="#fff" fill-opacity=".21"/><rect x="109.951" y="70.049" width="6.68" height="1.406" rx=".352" fill="#fff" fill-opacity=".21"/><rect x="42.397" y="73.389" width="5.098" height="1.406" rx=".352" fill="#fff" fill-opacity=".21"/><rect x="74.268" y="73.389" width="7.207" height="1.406" rx=".352" fill="#fff" fill-opacity=".21"/><rect x="111.357" y="73.389" width="5.186" height="1.406" rx=".352" fill="#fff" fill-opacity=".21"/><rect x="42.924" y="76.728" width="4.57" height="1.406" rx=".352" fill="#fff" fill-opacity=".21"/><rect x="76.025" y="76.728" width="5.449" height="1.406" rx=".352" fill="#fff" fill-opacity=".21"/><rect x="112.939" y="76.728" width="3.691" height="1.406" rx=".352" fill="#fff" fill-opacity=".21"/><rect x="45.56" y="80.068" width="2.021" height="1.406" rx=".352" fill="#fff" fill-opacity=".21"/><rect x="76.025" y="80.068" width="5.537" height="1.406" rx=".352" fill="#fff" fill-opacity=".21"/><rect x="111.006" y="80.068" width="5.625" height="1.406" rx=".352" fill="#fff" fill-opacity=".21"/><rect x="42.309" y="83.408" width="5.273" height="1.406" rx=".352" fill="#fff" fill-opacity=".21"/><rect x="75.938" y="83.408" width="5.625" height="1.406" rx=".352" fill="#fff" fill-opacity=".21"/><rect x="112.412" y="83.408" width="4.219" height="1.406" rx=".352" fill="#fff" fill-opacity=".21"/><rect x="48.461" y="63.369" width="5.625" height="1.406" rx=".352" fill="#fff" fill-opacity=".21"/><rect x="82.441" y="63.369" width="5.625" height="1.406" rx=".352" fill="#fff" fill-opacity=".21"/><rect x="117.51" y="63.369" width="5.625" height="1.406" rx=".352" fill="#fff" fill-opacity=".21"/><rect x="48.461" y="66.709" width="5.625" height="1.406" rx=".352" fill="#fff" fill-opacity=".21"/><rect x="82.441" y="66.709" width="5.625" height="1.406" rx=".352" fill="#fff" fill-opacity=".21"/><rect x="117.51" y="66.709" width="5.625" height="1.406" rx=".352" fill="#fff" fill-opacity=".21"/><rect x="48.461" y="70.049" width="5.625" height="1.406" rx=".352" fill="#fff" fill-opacity=".21"/><rect x="82.441" y="70.049" width="5.625" height="1.406" rx=".352" fill="#fff" fill-opacity=".21"/><rect x="117.51" y="70.049" width="5.625" height="1.406" rx=".352" fill="#fff" fill-opacity=".21"/><rect x="48.461" y="73.389" width="5.625" height="1.406" rx=".352" fill="#fff" fill-opacity=".21"/><rect x="82.441" y="73.389" width="5.625" height="1.406" rx=".352" fill="#fff" fill-opacity=".21"/><rect x="117.51" y="73.389" width="5.625" height="1.406" rx=".352" fill="#fff" fill-opacity=".21"/><rect x="48.461" y="76.728" width="5.625" height="1.406" rx=".352" fill="#fff" fill-opacity=".21"/><rect x="82.441" y="76.728" width="5.625" height="1.406" rx=".352" fill="#fff" fill-opacity=".21"/><rect x="117.51" y="76.728" width="5.625" height="1.406" rx=".352" fill="#fff" fill-opacity=".21"/><rect x="48.461" y="80.068" width="5.625" height="1.406" rx=".352" fill="#fff" fill-opacity=".21"/><rect x="82.441" y="80.068" width="5.625" height="1.406" rx=".352" fill="#fff" fill-opacity=".21"/><rect x="117.51" y="80.068" width="5.625" height="1.406" rx=".352" fill="#fff" fill-opacity=".21"/><rect x="48.461" y="83.408" width="5.625" height="1.406" rx=".352" fill="#fff" fill-opacity=".21"/><rect x="82.441" y="83.408" width="5.625" height="1.406" rx=".352" fill="#fff" fill-opacity=".21"/><rect x="117.51" y="83.408" width="5.625" height="1.406" rx=".352" fill="#fff" fill-opacity=".21"/><rect x="119.092" y="14.766" width="4.395" height="1.406" rx=".352" fill="#fff" fill-opacity=".21"/><rect x="119.092" y="17.227" width="4.395" height="1.406" rx=".352" fill="#fff" fill-opacity=".21"/><rect x="109.512" y="10.02" width="5.449" height="1.406" rx=".352" fill="#fff" fill-opacity=".21"/><rect x="41.957" y="60.908" width="3.252" height="1.406" rx=".352" fill="#fff" fill-opacity=".21"/><rect x="74.971" y="60.908" width="6.68" height="1.406" rx=".352" fill="#fff" fill-opacity=".21"/><rect x="111.094" y="60.908" width="5.625" height="1.406" rx=".352" fill="#fff" fill-opacity=".21"/><rect x="120.234" y="10.02" width="3.604" height="1.406" rx=".352" fill="#fff" fill-opacity=".21"/><rect x="49.076" y="60.908" width="5.01" height="1.406" rx=".352" fill="#fff" fill-opacity=".21"/><rect x="83.057" y="60.908" width="5.01" height="1.406" rx=".352" fill="#fff" fill-opacity=".21"/><rect x="118.125" y="60.908" width="5.01" height="1.406" rx=".352" fill="#fff" fill-opacity=".21"/><rect x="24.027" y="6.504" width="16.963" height="2.461" rx=".352" fill="#fff" fill-opacity=".21"/><rect x="49.691" y="6.504" width="16.963" height="2.461" rx=".352" fill="#fff" fill-opacity=".21"/><rect x="23.939" y="14.766" width="12.832" height="2.988" rx=".352" fill="#fff" fill-opacity=".21"/><rect x="23.939" y="18.809" width="20.039" height="3.164" rx=".352" fill="#fff" fill-opacity=".21"/><g filter="url(#G)"><rect x="100.195" y="20.127" width="23.73" height="3.34" rx=".352" fill="#476AE5"/><rect x="100.195" y="20.127" width="23.73" height="3.34" rx=".352" fill="url(#H)" fill-opacity=".2"/></g><rect x="100.195" y="49.395" width="23.73" height="3.34" rx=".352" fill="#fff" fill-opacity=".21"/><rect x="100.195" y="27.598" width="7.559" height="2.285" rx=".352" fill="#fff" fill-opacity=".21"/><rect x="24.115" y="56.953" width="12.129" height="2.285" rx=".352" fill="#fff" fill-opacity=".21"/><rect x="59.096" y="56.953" width="12.129" height="2.285" rx=".352" fill="#fff" fill-opacity=".21"/><rect x="93.164" y="56.953" width="13.184" height="2.285" rx=".352" fill="#fff" fill-opacity=".21"/><rect x="100.986" y="32.168" width="19.16" height="1.758" rx=".352" fill="#fff" fill-opacity=".21"/><rect x="100.986" y="35.508" width="20.215" height="1.758" rx=".352" fill="#fff" fill-opacity=".21"/><rect x="100.986" y="38.848" width="19.16" height="1.758" rx=".352" fill="#fff" fill-opacity=".21"/><rect x="100.986" y="42.188" width="12.92" height="1.758" rx=".352" fill="#fff" fill-opacity=".21"/><rect x="100.986" y="45.527" width="13.799" height="1.758" rx=".352" fill="#fff" fill-opacity=".21"/><rect x="82.793" y="18.984" width="13.359" height="2.988" rx=".352" fill="#fff" fill-opacity=".21"/><rect x="72.861" y="18.984" width="9.404" height="2.988" rx=".352" fill="#fff" fill-opacity=".21"/><rect x="65.83" y="18.984" width="6.504" height="2.988" rx=".352" fill="#fff" fill-opacity=".21"/><rect x="74.356" y="6.504" width="16.963" height="2.461" rx=".352" fill="#fff" fill-opacity=".21"/><rect x="100.371" y="5.273" width="23.467" height="3.34" rx=".352" fill="#fff" fill-opacity=".21"/><mask id="I" style="mask-type:alpha" maskUnits="userSpaceOnUse" x="28" y="29" width="70" height="22"><path fill="#D9D9D9" d="M28.07 29.092h68.994V50.01H28.07z"/></mask><g mask="url(#I)"><path d="m28.416 47.316-.347 2.694h68.995v-9.273l-.231-2.193-.848-1.577-.5.154-1.078-1.809-.847 1.54-.347-.27-.539.962h-.27l-.5.577-.462-1.154h-.539l-.154.385h-.308l-.5.769-.462-.385-.231 1.193-.27-.385-.462.385-.154-.808-.27-.115-.307-1.424h-.693l-.27-.154-.192.423-.347.27-.192.615-.462-.615-.809-.27-.115-.423-.308.423-.5-1.346-.54-.193h-.192l-.193-.23-.231.23-.308-.461-.193.23-.192-.23-.578.23-.385.731-.731-.961h-1.232l-.27-1.578-.462-.385-.731 1.155-.231-.424-.27.193-.462-.77-.27.423-.269-.692-.192.846-.5-2.154-.232 1.423-.462.731-.27 1.693-.461-.461-.54.461-.192-1.154-.346.462-.693-1.154-.424 3.655-.539.115-.654-1.308-.578.115-.462.847-.462.23-.654 2.694-.54.693-.5.961-.693-1.654-.539-.5-.424.192-.385-.654H64.8l-.693-1.039h-.346l-.193-.577-.23.731-.232-.73-.27-.116-.23-.539-.732 1.385-.693-.154-.27-.808-.269.962-.462-.538-.27 1.77-.692-1.77-.231-1.809-.231 3.694-.385 1.193-.385.153-.193.808h-.5l-.231.885-.77-1.423-.27.692-.115-2.116-.347-.5-.154-1.193-.539-.962-.23 1.27-.501-1.116-.231 1.116-.308-.308-.193.885-.5.5-.193-.654h-.539l-.23.462-.232-1.462-.23.577-.232-1.539-.27.539-.23-1.77-.231 2.616-.27-.423-.539 1.77-.424.192-.192-1.962-.578-.962-.23 1.693-.193.27-.231 1.346h-.54l-.923-1.039-.578 1.039h-.385l-.27-.27-.269.5-.154-.5h-.423l-.385-.769-.732 1.27-.731-2.155-.27.577-.462-1.423-.616-.154-.308.154-.23 1.423-.27-.577-.5.885-.155.77-.385.269-.423-1.616-.693 4.925-.347.5-.654 2.039-.231-2.04-.732 2.502-.23-1.693-.27.77L35 42.7l-.578 1.808-.423-.808-.27.385-.462-2.578-.27.192-.269-.346-.385 1.346-.27-1-.23-2.078-.232 1.886-.346 1.693-.231.77-.154.23-.308-.115-.424.423-.23 2.808-.309.462-.154-1.27h-.27l-.269-.192-.27 1.347-.23-.346Z" fill="url(#J)"/><path fill-rule="evenodd" clip-rule="evenodd" d="M75.46 31.336a.129.129 0 0 1 .13.1l.374 1.608.068-.3a.129.129 0 0 1 .246-.018l.177.456.133-.209a.129.129 0 0 1 .22.003l.39.65.155-.111a.13.13 0 0 1 .188.043l.126.23.615-.969a.129.129 0 0 1 .191-.03l.462.385a.13.13 0 0 1 .045.077l.25 1.47h1.124c.04 0 .078.02.103.052l.609.8.29-.552a.129.129 0 0 1 .067-.06l.577-.23a.129.129 0 0 1 .147.037l.094.112.093-.112a.129.129 0 0 1 .206.011l.221.331.12-.12a.129.129 0 0 1 .19.009l.154.184h.132a.13.13 0 0 1 .044.008l.539.192c.035.013.064.041.077.077l.417 1.121.167-.229a.13.13 0 0 1 .228.042l.098.357.743.247a.128.128 0 0 1 .062.045l.31.415.118-.376a.128.128 0 0 1 .044-.063l.322-.25.18-.394a.13.13 0 0 1 .18-.059l.24.137h.659c.06 0 .113.042.126.102l.294 1.358.208.09c.04.016.068.052.076.094l.113.593.294-.245a.129.129 0 0 1 .188.025l.095.136.173-.894a.129.129 0 0 1 .21-.075l.35.292.421-.648a.129.129 0 0 1 .109-.058h.22l.122-.304a.129.129 0 0 1 .12-.081h.538c.053 0 .1.032.12.08l.384.959.362-.418a.129.129 0 0 1 .097-.044h.194l.502-.896a.129.129 0 0 1 .192-.039l.227.177.774-1.407a.129.129 0 0 1 .224-.004l1.026 1.722.404-.125a.129.129 0 0 1 .151.063l.847 1.577a.13.13 0 0 1 .015.048l.244 2.321-.256.027-.242-2.296-.785-1.462-.399.123a.129.129 0 0 1-.149-.057l-.962-1.615-.739 1.341a.129.129 0 0 1-.192.04l-.228-.177-.466.83a.129.129 0 0 1-.112.067h-.211l-.462.532a.129.129 0 0 1-.217-.036l-.43-1.073h-.364l-.122.303a.129.129 0 0 1-.12.081h-.238l-.462.711a.13.13 0 0 1-.19.029l-.295-.245-.19.978a.129.129 0 0 1-.232.05l-.189-.27-.354.295a.129.129 0 0 1-.21-.075l-.14-.74-.207-.089a.129.129 0 0 1-.075-.091l-.286-1.322h-.59a.129.129 0 0 1-.063-.017l-.147-.084-.134.295a.13.13 0 0 1-.038.048l-.315.245-.18.577a.129.129 0 0 1-.226.039l-.438-.584-.77-.256a.129.129 0 0 1-.084-.089l-.045-.164-.15.206a.129.129 0 0 1-.225-.03l-.48-1.291-.461-.165h-.17a.129.129 0 0 1-.1-.046l-.101-.123-.132.132a.129.129 0 0 1-.198-.02l-.212-.318-.082.098a.129.129 0 0 1-.198 0l-.133-.159-.446.178-.363.69a.129.129 0 0 1-.217.018l-.693-.911h-1.168a.129.129 0 0 1-.127-.108l-.261-1.53-.313-.26-.653 1.03a.13.13 0 0 1-.222-.008l-.161-.295-.151.108a.13.13 0 0 1-.186-.039l-.355-.59-.157.247a.129.129 0 0 1-.23-.023l-.116-.3-.1.436a.129.129 0 0 1-.25 0l-.353-1.517-.126.778a.128.128 0 0 1-.019.048l-.447.709-.266 1.667a.129.129 0 0 1-.218.07l-.378-.377-.448.384a.129.129 0 0 1-.211-.076l-.143-.858-.166.221a.129.129 0 0 1-.213-.01l-.499-.83-.38 3.279a.129.129 0 0 1-.1.11l-.54.116a.129.129 0 0 1-.142-.068l-.61-1.22-.422.084-.434.794a.13.13 0 0 1-.055.053l-.409.204-.64 2.635a.13.13 0 0 1-.023.049l-.532.683-.495.952a.129.129 0 0 1-.234-.01l-.682-1.629-.456-.422-.345.156a.129.129 0 0 1-.164-.051l-.348-.591H64.8a.129.129 0 0 1-.108-.058l-.654-.98h-.278a.129.129 0 0 1-.122-.089l-.067-.2-.111.352a.129.129 0 0 1-.246 0L63 37.33l-.216-.092a.129.129 0 0 1-.067-.068l-.125-.29-.605 1.146a.129.129 0 0 1-.142.066l-.693-.154a.13.13 0 0 1-.095-.085l-.136-.41-.156.558a.129.129 0 0 1-.222.049l-.28-.325-.227 1.492a.129.129 0 0 1-.247.027l-.693-1.77a.129.129 0 0 1-.008-.03l-.059-.464-.146 2.34c-.001.012-.003.022-.006.032l-.385 1.193a.129.129 0 0 1-.075.08l-.323.13-.177.742a.129.129 0 0 1-.126.1h-.4l-.206.788a.129.129 0 0 1-.238.028l-.638-1.178-.169.433a.129.129 0 0 1-.248-.04l-.114-2.08-.326-.47a.127.127 0 0 1-.021-.057l-.151-1.168-.352-.627-.167.917a.129.129 0 0 1-.244.03l-.338-.753-.15.726a.129.129 0 0 1-.217.065l-.141-.14-.143.653a.13.13 0 0 1-.035.064l-.5.5a.129.129 0 0 1-.215-.054l-.165-.562h-.363l-.195.39a.13.13 0 0 1-.243-.037l-.158-1-.057.143a.129.129 0 0 1-.247-.029l-.17-1.136-.088.174a.129.129 0 0 1-.243-.04l-.078-.602-.128 1.442a.129.129 0 0 1-.237.058l-.119-.187-.457 1.502a.13.13 0 0 1-.07.08l-.424.192a.129.129 0 0 1-.181-.104l-.19-1.934-.374-.623-.182 1.33a.128.128 0 0 1-.022.058l-.176.245-.226 1.318a.129.129 0 0 1-.127.107h-.539a.129.129 0 0 1-.096-.044l-.803-.903-.49.88a.129.129 0 0 1-.112.067h-.385a.13.13 0 0 1-.091-.038l-.148-.147-.187.348a.129.129 0 0 1-.237-.023l-.126-.41h-.328a.129.129 0 0 1-.115-.07l-.278-.556-.612 1.062a.129.129 0 0 1-.233-.023l-.629-1.85-.134.286a.129.129 0 0 1-.24-.015l-.439-1.356-.5-.125-.207.103-.22 1.359a.129.129 0 0 1-.244.034l-.164-.35-.367.648-.15.75a.129.129 0 0 1-.053.08l-.385.27a.129.129 0 0 1-.198-.074l-.261-.994-.603 4.289a.128.128 0 0 1-.022.055l-.336.484-.648 2.021a.129.129 0 0 1-.251-.024l-.16-1.404-.551 1.887a.129.129 0 0 1-.251-.019l-.159-1.162-.093.264a.129.129 0 0 1-.246-.01l-.579-2.154-.444 1.391a.129.129 0 0 1-.237.02l-.325-.62-.148.211a.129.129 0 0 1-.233-.05l-.426-2.378-.103.074a.129.129 0 0 1-.177-.026l-.114-.146-.315 1.103a.129.129 0 0 1-.248-.002l-.27-1a.126.126 0 0 1-.003-.02l-.11-.981-.096.79a.112.112 0 0 1-.002.01l-.347 1.694a.108.108 0 0 1-.002.01l-.231.77a.128.128 0 0 1-.017.035l-.154.23a.129.129 0 0 1-.152.05l-.23-.087-.332.331-.227 2.762a.128.128 0 0 1-.021.061l-.308.462a.129.129 0 0 1-.235-.056l-.14-1.157h-.156a.13.13 0 0 1-.075-.024l-.107-.076-.23 1.151a.129.129 0 0 1-.234.046l-.04-.06-.32 2.48-.255-.033.363-2.821a.129.129 0 0 1 .235-.055l.059.088.208-1.042a.129.129 0 0 1 .201-.08l.236.169h.229c.065 0 .12.048.128.113l.112.924.096-.144.228-2.776a.129.129 0 0 1 .038-.08l.423-.424a.13.13 0 0 1 .136-.03l.213.08.086-.13.224-.745.344-1.682.23-1.88a.129.129 0 0 1 .257.001l.23 2.068.146.543.257-.9a.129.129 0 0 1 .226-.044l.194.248.168-.12a.129.129 0 0 1 .202.082l.407 2.273.092-.131a.13.13 0 0 1 .22.014l.28.535.484-1.515a.129.129 0 0 1 .247.006l.585 2.175.132-.376a.129.129 0 0 1 .249.025l.15 1.094.561-1.92a.13.13 0 0 1 .252.021l.163 1.444.472-1.468a.127.127 0 0 1 .016-.035l.33-.475.688-4.894a.129.129 0 0 1 .253-.015l.376 1.437.191-.134.144-.718a.126.126 0 0 1 .014-.038l.5-.885a.129.129 0 0 1 .23.009l.092.198.164-1.011a.13.13 0 0 1 .07-.095l.308-.154a.129.129 0 0 1 .089-.01l.616.155c.043.01.077.043.091.085l.361 1.112.131-.28a.129.129 0 0 1 .24.013l.639 1.885.59-1.023a.129.129 0 0 1 .226.006l.35.699h.344c.056 0 .106.036.123.09l.063.206.124-.229a.129.129 0 0 1 .204-.03l.232.232h.256l.54-.973a.129.129 0 0 1 .21-.023l.885.996h.373l.212-1.24a.128.128 0 0 1 .022-.053l.174-.243.227-1.661a.129.129 0 0 1 .238-.05l.578.962a.13.13 0 0 1 .017.054l.175 1.783.207-.094.522-1.714a.129.129 0 0 1 .232-.031l.066.103.197-2.239a.129.129 0 0 1 .257-.005l.176 1.352.081-.162a.13.13 0 0 1 .243.039l.16 1.069.055-.136a.129.129 0 0 1 .247.028l.168 1.065.051-.102a.129.129 0 0 1 .115-.072h.54c.056 0 .107.038.123.093l.131.446.32-.32.185-.848a.129.129 0 0 1 .217-.064l.14.139.182-.882a.129.129 0 0 1 .243-.026l.331.736.157-.86a.129.129 0 0 1 .239-.04l.539.961c.008.015.013.03.015.047l.15 1.161.329.475a.13.13 0 0 1 .023.066l.083 1.52.053-.136a.13.13 0 0 1 .233-.015l.615 1.136.148-.568a.129.129 0 0 1 .125-.097h.399l.169-.709a.129.129 0 0 1 .077-.09l.329-.13.361-1.12.23-3.678a.129.129 0 0 1 .257-.008l.229 1.792.512 1.308.197-1.295a.129.129 0 0 1 .225-.065l.306.356.204-.73a.129.129 0 0 1 .246-.006l.247.74.526.116.685-1.298a.129.129 0 0 1 .233.01l.21.49.222.096c.035.014.061.043.072.08l.109.341.108-.342a.129.129 0 0 1 .245-.002l.163.49h.254c.043 0 .083.02.107.057l.655.981h.547c.045 0 .088.024.11.064l.327.554.318-.145a.129.129 0 0 1 .14.023l.54.5a.128.128 0 0 1 .031.045l.587 1.4.374-.717a.126.126 0 0 1 .012-.02l.522-.67.648-2.667a.13.13 0 0 1 .068-.085l.426-.212.442-.811a.129.129 0 0 1 .088-.065l.578-.116a.129.129 0 0 1 .14.07l.61 1.218.351-.075.413-3.563a.13.13 0 0 1 .238-.052l.595.99.231-.308a.129.129 0 0 1 .23.056l.156.929.365-.313a.129.129 0 0 1 .175.007l.283.283.23-1.444a.128.128 0 0 1 .019-.048l.448-.71.226-1.397a.129.129 0 0 1 .123-.108Z" fill="#476AE6"/></g><defs><linearGradient id="a" x1="63" y1="0" x2="63" y2="90" gradientUnits="userSpaceOnUse"><stop stop-color="#101424"/><stop offset="1" stop-color="#0C0F1A"/></linearGradient><linearGradient id="c" x1="10.063" y1="0" x2="10.063" y2="90" gradientUnits="userSpaceOnUse"><stop stop-color="#131930" stop-opacity=".5"/><stop offset="1" stop-color="#14192C"/></linearGradient><linearGradient id="d" x1="10.063" y1="0" x2="10.063" y2="90" gradientUnits="userSpaceOnUse"><stop stop-color="#F5F5F5" stop-opacity=".15"/><stop offset="1" stop-color="#E4E4E4" stop-opacity=".2"/></linearGradient><linearGradient id="g" x1="34.75" y1="1.406" x2="34.75" y2="11.953" gradientUnits="userSpaceOnUse"><stop stop-color="#131930" stop-opacity=".5"/><stop offset="1" stop-color="#14192C"/></linearGradient><linearGradient id="h" x1="34.75" y1="1.406" x2="34.75" y2="11.953" gradientUnits="userSpaceOnUse"><stop stop-color="#F5F5F5" stop-opacity=".15"/><stop offset="1" stop-color="#E4E4E4" stop-opacity=".2"/></linearGradient><linearGradient id="j" x1="60.502" y1="1.406" x2="60.502" y2="11.953" gradientUnits="userSpaceOnUse"><stop stop-color="#131930" stop-opacity=".5"/><stop offset="1" stop-color="#14192C"/></linearGradient><linearGradient id="k" x1="60.502" y1="1.406" x2="60.502" y2="11.953" gradientUnits="userSpaceOnUse"><stop stop-color="#F5F5F5" stop-opacity=".15"/><stop offset="1" stop-color="#E4E4E4" stop-opacity=".2"/></linearGradient><linearGradient id="m" x1="85.254" y1="1.406" x2="85.254" y2="11.953" gradientUnits="userSpaceOnUse"><stop stop-color="#131930" stop-opacity=".5"/><stop offset="1" stop-color="#14192C"/></linearGradient><linearGradient id="n" x1="85.254" y1="1.406" x2="85.254" y2="11.953" gradientUnits="userSpaceOnUse"><stop stop-color="#F5F5F5" stop-opacity=".15"/><stop offset="1" stop-color="#E4E4E4" stop-opacity=".2"/></linearGradient><linearGradient id="p" x1="112.061" y1="1.406" x2="112.061" y2="24.785" gradientUnits="userSpaceOnUse"><stop stop-color="#131930" stop-opacity=".5"/><stop offset="1" stop-color="#14192C"/></linearGradient><linearGradient id="q" x1="112.061" y1="1.406" x2="112.061" y2="24.785" gradientUnits="userSpaceOnUse"><stop stop-color="#F5F5F5" stop-opacity=".15"/><stop offset="1" stop-color="#E4E4E4" stop-opacity=".2"/></linearGradient><linearGradient id="s" x1="112.061" y1="26.191" x2="112.061" y2="54.053" gradientUnits="userSpaceOnUse"><stop stop-color="#131930" stop-opacity=".5"/><stop offset="1" stop-color="#14192C"/></linearGradient><linearGradient id="t" x1="112.061" y1="26.191" x2="112.061" y2="54.053" gradientUnits="userSpaceOnUse"><stop stop-color="#F5F5F5" stop-opacity=".15"/><stop offset="1" stop-color="#E4E4E4" stop-opacity=".2"/></linearGradient><linearGradient id="v" x1="60.502" y1="13.359" x2="60.502" y2="54.053" gradientUnits="userSpaceOnUse"><stop stop-color="#131930" stop-opacity=".5"/><stop offset="1" stop-color="#14192C"/></linearGradient><linearGradient id="w" x1="60.502" y1="13.359" x2="60.502" y2="54.053" gradientUnits="userSpaceOnUse"><stop stop-color="#F5F5F5" stop-opacity=".15"/><stop offset="1" stop-color="#E4E4E4" stop-opacity=".2"/></linearGradient><linearGradient id="y" x1="39.364" y1="55.459" x2="39.364" y2="87.188" gradientUnits="userSpaceOnUse"><stop stop-color="#131930" stop-opacity=".5"/><stop offset="1" stop-color="#14192C"/></linearGradient><linearGradient id="z" x1="39.364" y1="55.459" x2="39.364" y2="87.188" gradientUnits="userSpaceOnUse"><stop stop-color="#F5F5F5" stop-opacity=".15"/><stop offset="1" stop-color="#E4E4E4" stop-opacity=".2"/></linearGradient><linearGradient id="B" x1="74.433" y1="55.459" x2="74.433" y2="87.188" gradientUnits="userSpaceOnUse"><stop stop-color="#131930" stop-opacity=".5"/><stop offset="1" stop-color="#14192C"/></linearGradient><linearGradient id="C" x1="74.433" y1="55.459" x2="74.433" y2="87.188" gradientUnits="userSpaceOnUse"><stop stop-color="#F5F5F5" stop-opacity=".15"/><stop offset="1" stop-color="#E4E4E4" stop-opacity=".2"/></linearGradient><linearGradient id="E" x1="108.501" y1="55.459" x2="108.501" y2="87.188" gradientUnits="userSpaceOnUse"><stop stop-color="#131930" stop-opacity=".5"/><stop offset="1" stop-color="#14192C"/></linearGradient><linearGradient id="F" x1="108.501" y1="55.459" x2="108.501" y2="87.188" gradientUnits="userSpaceOnUse"><stop stop-color="#F5F5F5" stop-opacity=".15"/><stop offset="1" stop-color="#E4E4E4" stop-opacity=".2"/></linearGradient><linearGradient id="H" x1="112.061" y1="20.127" x2="112.061" y2="23.467" gradientUnits="userSpaceOnUse"><stop stop-color="#fff" stop-opacity="0"/><stop offset="1" stop-color="#fff"/></linearGradient><linearGradient id="J" x1="62.566" y1="31.465" x2="62.566" y2="50.01" gradientUnits="userSpaceOnUse"><stop stop-color="#476AE5" stop-opacity=".6"/><stop offset="1" stop-color="#101421" stop-opacity="0"/></linearGradient><radialGradient id="b" cx="0" cy="0" r="1" gradientUnits="userSpaceOnUse" gradientTransform="matrix(0 45 -10.0635 0 10.063 0)"><stop stop-color="#161B29" stop-opacity=".8"/><stop offset="1" stop-color="#0F121A" stop-opacity=".2"/></radialGradient><radialGradient id="f" cx="0" cy="0" r="1" gradientUnits="userSpaceOnUse" gradientTransform="matrix(0 5.27344 -12.2168 0 34.75 1.406)"><stop stop-color="#161B29" stop-opacity=".8"/><stop offset="1" stop-color="#0F121A" stop-opacity=".2"/></radialGradient><radialGradient id="i" cx="0" cy="0" r="1" gradientUnits="userSpaceOnUse" gradientTransform="matrix(0 5.27344 -12.2168 0 60.502 1.406)"><stop stop-color="#161B29" stop-opacity=".8"/><stop offset="1" stop-color="#0F121A" stop-opacity=".2"/></radialGradient><radialGradient id="l" cx="0" cy="0" r="1" gradientUnits="userSpaceOnUse" gradientTransform="matrix(0 5.27344 -12.2168 0 85.254 1.406)"><stop stop-color="#161B29" stop-opacity=".8"/><stop offset="1" stop-color="#0F121A" stop-opacity=".2"/></radialGradient><radialGradient id="o" cx="0" cy="0" r="1" gradientUnits="userSpaceOnUse" gradientTransform="matrix(0 11.6895 -13.1836 0 112.061 1.406)"><stop stop-color="#161B29" stop-opacity=".8"/><stop offset="1" stop-color="#0F121A" stop-opacity=".2"/></radialGradient><radialGradient id="r" cx="0" cy="0" r="1" gradientUnits="userSpaceOnUse" gradientTransform="matrix(0 13.9307 -13.1836 0 112.061 26.191)"><stop stop-color="#161B29" stop-opacity=".8"/><stop offset="1" stop-color="#0F121A" stop-opacity=".2"/></radialGradient><radialGradient id="u" cx="0" cy="0" r="1" gradientUnits="userSpaceOnUse" gradientTransform="matrix(0 20.3467 -37.9687 0 60.502 13.36)"><stop stop-color="#161B29" stop-opacity=".8"/><stop offset="1" stop-color="#0F121A" stop-opacity=".2"/></radialGradient><radialGradient id="x" cx="0" cy="0" r="1" gradientUnits="userSpaceOnUse" gradientTransform="matrix(0 15.8643 -16.8311 0 39.364 55.459)"><stop stop-color="#161B29" stop-opacity=".8"/><stop offset="1" stop-color="#0F121A" stop-opacity=".2"/></radialGradient><radialGradient id="A" cx="0" cy="0" r="1" gradientUnits="userSpaceOnUse" gradientTransform="matrix(0 15.8643 -16.8311 0 74.433 55.459)"><stop stop-color="#161B29" stop-opacity=".8"/><stop offset="1" stop-color="#0F121A" stop-opacity=".2"/></radialGradient><radialGradient id="D" cx="0" cy="0" r="1" gradientUnits="userSpaceOnUse" gradientTransform="matrix(0 15.8643 -16.8311 0 108.501 55.459)"><stop stop-color="#161B29" stop-opacity=".8"/><stop offset="1" stop-color="#0F121A" stop-opacity=".2"/></radialGradient><filter id="G" x="100.195" y="20.127" width="23.73" height="3.34" filterUnits="userSpaceOnUse" color-interpolation-filters="sRGB"><feFlood flood-opacity="0" result="BackgroundImageFix"/><feBlend in="SourceGraphic" in2="BackgroundImageFix" result="shape"/><feColorMatrix in="SourceAlpha" values="0 0 0 0 0 0 0 0 0 0 0 0 0 0 0 0 0 0 127 0" result="hardAlpha"/><feMorphology radius=".088" in="SourceAlpha" result="effect1_innerShadow_979_10715"/><feOffset/><feComposite in2="hardAlpha" operator="arithmetic" k2="-1" k3="1"/><feColorMatrix values="0 0 0 0 0.278431 0 0 0 0 0.415686 0 0 0 0 0.898039 0 0 0 1 0"/><feBlend in2="shape" result="effect1_innerShadow_979_10715"/></filter></defs></svg>