<svg xmlns="http://www.w3.org/2000/svg" width="253" height="64" fill="none"><g clip-path="url(#a)"><mask id="b" width="65" height="56" x="0" y="4" maskUnits="userSpaceOnUse" style="mask-type:luminance"><path fill="#fff" d="M5.14 53.149c4.82 8 16.416 8.195 21.229.179a17.546 17.546 0 0 0 2.49-8.38l.153-4.1S21.7 47.52 18.686 47.11c-1.018-.137-.243-2.025.125-2.96 1.398-3.52 9.894-12.179 9.894-12.179s.675-12.265 1.875-15.629c.621-1.74 1.341-2.537 2-2.854.66.32 1.38 1.114 2 2.854 1.2 3.364 1.875 15.63 1.875 15.63s8.496 8.64 9.895 12.178c.368.935 1.142 2.823.125 2.96-3.018.41-10.327-6.262-10.327-6.262l.154 4.1a17.547 17.547 0 0 0 2.749 8.8c4.832 7.558 16.048 7.36 20.768-.266a31.813 31.813 0 0 0 4.761-16.548c.131-17.37-13.862-31.83-31.232-32.236A32 32 0 0 0 5.14 53.148Z"/></mask><g mask="url(#b)"><path fill="#FBB03B" d="M5.14 53.149c4.82 8 16.416 8.195 21.229.179a17.546 17.546 0 0 0 2.49-8.38l.153-4.1S21.7 47.52 18.686 47.11c-1.018-.137-.243-2.025.125-2.96 1.398-3.52 9.894-12.179 9.894-12.179s.675-12.265 1.875-15.629c.621-1.74 1.341-2.537 2-2.854.66.32 1.38 1.114 2 2.854 1.2 3.364 1.875 15.63 1.875 15.63s8.496 8.64 9.895 12.178c.368.935 1.142 2.823.125 2.96-3.018.41-10.327-6.262-10.327-6.262l.154 4.1a17.547 17.547 0 0 0 2.749 8.8c4.832 7.558 16.048 7.36 20.768-.266a31.813 31.813 0 0 0 4.761-16.548c.131-17.37-13.862-31.83-31.232-32.236A32 32 0 0 0 5.14 53.148Z"/><path fill="url(#c)" d="M85.78 15.68c0 16.458-13.968 29.798-31.2 29.798s-31.2-13.33-31.2-29.798c0-16.467 8.368-22.201 25.6-22.201s36.8 5.753 36.8 22.201Z"/><path fill="url(#d)" d="M36.98 64.49c0 18.444-46.4 4.646-46.4-13.802s-2.032-19.6 15.2-19.6 31.2 14.953 31.2 33.401Z"/></g><path fill="#000" d="M93.226 27.93h7.956V19.2h-7.956V9.344l-9.081 2.746v7.11H78.02v8.73h6.125v14.643c0 9.504 4.294 13.235 17.037 11.827v-8.237c-5.21.282-7.956.212-7.956-3.59V27.93Z"/><path fill="#000" fill-rule="evenodd" d="M145.298 47.149c-4.787 0-8.659-1.971-9.926-6.618h26.54c.212-1.197.352-2.393.352-3.731 0-10.349-7.392-18.586-17.811-18.586-11.053 0-18.585 8.096-18.585 18.586 0 10.49 7.462 18.586 19.289 18.586 6.759 0 12.039-2.746 15.347-7.533l-7.321-4.224c-1.549 2.041-4.365 3.52-7.885 3.52Zm7.885-13.658h-17.952c1.056-4.505 4.365-7.11 9.222-7.11 3.802 0 7.603 2.041 8.73 7.11ZM235.002 19.2h-9.082v4.154c-2.534-3.168-6.336-5.14-11.475-5.14-9.363 0-17.107 8.096-17.107 18.586 0 10.49 7.744 18.586 17.107 18.586 5.139 0 8.941-1.972 11.475-5.14V54.4h9.082V19.2Zm-9.082 17.6c0 5.914-4.153 9.926-9.785 9.926-5.562 0-9.716-4.012-9.716-9.926 0-5.914 4.154-9.926 9.716-9.926 5.632 0 9.785 4.012 9.785 9.926Z" clip-rule="evenodd"/><path fill="#000" d="M240.421 49.331a5.979 5.979 0 0 0 5.984 5.984 5.979 5.979 0 0 0 5.984-5.984 5.979 5.979 0 0 0-5.984-5.984 5.979 5.979 0 0 0-5.984 5.984ZM188.279 19.2h9.997L184.9 54.4h-10.349l-13.376-35.2h9.997l8.518 24.64 8.589-24.64ZM115.105 25.255c1.83-4.788 6.265-6.759 10.7-6.759v10.138c-4.716-.564-10.7 1.549-10.7 8.94V54.4h-9.082V19.2h9.082v6.055Z"/></g><defs><linearGradient id="c" x1="72.932" x2="35.956" y1="39.632" y2="-4.63" gradientUnits="userSpaceOnUse"><stop stop-color="#01DDA5"/><stop offset="1" stop-color="#3CADE2"/></linearGradient><linearGradient id="d" x1="30.474" x2="-4.041" y1="73.494" y2="32.179" gradientUnits="userSpaceOnUse"><stop stop-color="#FF8A11"/><stop offset="1" stop-color="#E81894"/></linearGradient><clipPath id="a"><path fill="#fff" d="M.58 0h251.84v64H.58z"/></clipPath></defs></svg>