<svg xmlns="http://www.w3.org/2000/svg" width="257" height="64" fill="none"><g clip-path="url(#a)"><path fill="#000" d="m248.554 5.896 7.786 52.208h-13.923l-.679-9.384h-4.878l-.808 9.384h-14.085l6.914-52.208h19.673Zm-7.203 33.57c-.69-5.913-1.379-13.211-2.068-21.896-1.378 9.975-2.24 17.273-2.585 21.895h4.653ZM220.271 5.896v52.208H206.67V5.896h13.601ZM201.905 21.697h-12.631v-3.87c0-1.805-.162-2.956-.485-3.45-.323-.494-.862-.742-1.615-.742-.819 0-1.443.334-1.874 1-.409.666-.614 1.677-.614 3.031 0 1.741.237 3.053.711 3.934.452.882 1.733 1.946 3.844 3.193 6.052 3.59 9.864 6.535 11.436 8.835 1.572 2.3 2.358 6.009 2.358 11.125 0 3.72-.441 6.46-1.324 8.223-.861 1.763-2.541 3.246-5.04 4.45-2.498 1.183-5.405 1.774-8.722 1.774-3.64 0-6.752-.688-9.336-2.064-2.563-1.376-4.243-3.128-5.04-5.256-.797-2.129-1.195-5.149-1.195-9.061V39.4h12.631v6.353c0 1.956.172 3.214.517 3.773.366.559 1.002.838 1.906.838.905 0 1.572-.355 2.003-1.064.452-.71.679-1.763.679-3.16 0-3.074-.421-5.084-1.261-6.03-.861-.946-2.982-2.526-6.363-4.74-3.382-2.236-5.622-3.86-6.72-4.87-1.098-1.01-2.014-2.407-2.746-4.192-.711-1.784-1.066-4.063-1.066-6.836 0-3.999.506-6.922 1.518-8.771 1.034-1.849 2.692-3.29 4.975-4.321 2.283-1.054 5.04-1.58 8.27-1.58 3.532 0 6.537.57 9.014 1.709 2.498 1.14 4.145 2.58 4.942 4.32.819 1.72 1.228 4.655 1.228 8.804v2.064ZM168.646 36.466c0 5.245-.129 8.965-.387 11.157-.237 2.172-1.013 4.16-2.326 5.966-1.293 1.806-3.048 3.192-5.266 4.16-2.218.967-4.803 1.45-7.753 1.45-2.8 0-5.32-.45-7.56-1.353-2.218-.925-4.005-2.3-5.362-4.128-1.357-1.827-2.165-3.816-2.423-5.966-.259-2.15-.388-5.912-.388-11.286v-8.932c0-5.246.119-8.954.355-11.125a12.713 12.713 0 0 1 2.326-5.998c1.314-1.806 3.08-3.193 5.298-4.16 2.219-.967 4.803-1.451 7.754-1.451 2.799 0 5.308.462 7.527 1.386 2.24.903 4.038 2.268 5.395 4.096 1.356 1.827 2.164 3.816 2.423 5.965.258 2.15.387 5.912.387 11.287v8.932Zm-13.6-17.155c0-2.43-.14-3.977-.42-4.644-.259-.688-.808-1.032-1.648-1.032-.71 0-1.26.28-1.647.839-.366.537-.55 2.15-.55 4.837v24.378c0 3.031.119 4.901.356 5.611.258.71.84 1.064 1.744 1.064.926 0 1.519-.408 1.777-1.225.259-.817.388-2.763.388-5.837V19.311ZM135.128 5.896v10.448h-8.076v41.76h-13.6v-41.76h-8.044V5.896h29.72ZM103.13 5.896v34.891c0 3.956-.13 6.74-.388 8.352-.258 1.591-1.023 3.235-2.294 4.934-1.27 1.677-2.95 2.956-5.04 3.837-2.067.86-4.511 1.29-7.332 1.29-3.123 0-5.88-.516-8.27-1.548-2.391-1.032-4.179-2.375-5.363-4.03-1.185-1.656-1.884-3.397-2.1-5.224-.215-1.85-.323-5.719-.323-11.61V5.897h13.6v39.148c0 2.279.12 3.74.356 4.385.258.624.764.936 1.518.936.862 0 1.41-.344 1.648-1.032.258-.71.388-2.365.388-4.966V5.897h13.6Z"/><path fill="#2600E3" fill-rule="evenodd" d="M32.34 48c8.836 0 16-7.163 16-16s-7.164-16-16-16c-8.837 0-16 7.163-16 16s7.163 16 16 16Zm0 16c17.673 0 32-14.327 32-32 0-17.673-14.327-32-32-32-17.673 0-32 14.327-32 32 0 17.673 14.327 32 32 32Z" clip-rule="evenodd"/></g><defs><clipPath id="a"><path fill="#fff" d="M.34 0h256.32v64H.34z"/></clipPath></defs></svg>