<svg xmlns="http://www.w3.org/2000/svg" width="254" height="64" fill="none"><g clip-path="url(#a)"><path fill="url(#b)" d="M32.6 0a32 32 0 0 1 0 64H8.28A7.681 7.681 0 0 1 .6 56.32V32a32 32 0 0 1 32-32Z"/><path fill="#fff" d="m27.829 57.78-4.746-3.52 10.24-13.886c-.553.074-1.024.132-1.414.167-.39.035-.701.054-.96.054-3.46 0-6.457-1.315-8.99-3.945a13.121 13.121 0 0 1-3.76-9.428 13.653 13.653 0 0 1 4.19-10.048 13.818 13.818 0 0 1 10.099-4.195 14.248 14.248 0 0 1 10.182 4.138c2.887 2.745 4.33 5.985 4.33 9.718 0 3.311-1.406 6.89-4.218 10.736L27.83 57.78Zm-3.332-31.04a8.08 8.08 0 0 0 8.103 8.182 8.08 8.08 0 0 0 8.102-8.042 8.083 8.083 0 0 0-8.13-8.077 7.768 7.768 0 0 0-5.687 2.346 7.648 7.648 0 0 0-2.388 5.603v-.013Z"/><path fill="#000" d="M135.245 47.36V4.16h-5.232v43.2h5.232ZM207.067 16.929V47.36h-5.232V16.929h5.232ZM201.442 8.857c0-.844.253-1.556.759-2.137.525-.582 1.294-.872 2.307-.872.993 0 1.752.29 2.278.872.543.58.815 1.293.815 2.137 0 .806-.272 1.5-.815 2.081-.526.563-1.285.844-2.278.844-1.013 0-1.782-.281-2.307-.844-.506-.581-.759-1.275-.759-2.081ZM226.433 20.922V16.93h-5.682V9.532h-5.203v7.397h-5.569v3.993h5.569v18.872c0 2.025.31 3.638.928 4.838.638 1.181 1.491 2.025 2.56 2.531 1.068.506 2.24.76 3.515.76.938 0 1.735-.066 2.391-.197.675-.113 1.219-.235 1.631-.366l-.028-4.247c-.244.056-.609.131-1.097.225a8.555 8.555 0 0 1-1.35.112 5.118 5.118 0 0 1-1.631-.253c-.506-.168-.919-.515-1.238-1.04-.318-.525-.478-1.303-.478-2.335v-18.9h5.682ZM238.323 47.032 227.46 16.929h5.682l7.616 22.767 7.065-22.767h5.569l-12.206 35.128c-.282.75-.657 1.556-1.126 2.418a11.561 11.561 0 0 1-1.743 2.504 8.302 8.302 0 0 1-2.588 1.912c-.993.506-2.184.76-3.572.76-.412 0-.937-.057-1.575-.17a15.31 15.31 0 0 1-1.349-.28l-.029-4.22c.15.02.385.038.703.057.338.038.572.056.704.056 1.181 0 2.184-.159 3.009-.478.825-.3 1.519-.815 2.081-1.547.582-.712 1.078-1.697 1.491-2.953l1.131-3.084ZM188.601 42.888c-1.05.506-2.194.76-3.431.76-1.613 0-2.963-.31-4.05-.929a7.356 7.356 0 0 1-2.56-2.53c-.619-1.05-1.059-2.223-1.322-3.516a19.79 19.79 0 0 1-.393-3.938v-1.181c0-1.331.131-2.635.393-3.91.282-1.293.732-2.465 1.35-3.515a7.051 7.051 0 0 1 2.56-2.532c1.087-.637 2.428-.956 4.022-.956 1.387 0 2.597.31 3.628.928a6.663 6.663 0 0 1 2.475 2.42c.619 1.012.975 2.146 1.068 3.402h4.951c-.094-2.1-.657-3.975-1.688-5.625-1.012-1.668-2.409-2.981-4.191-3.937-1.781-.975-3.862-1.463-6.243-1.463-2.288 0-4.285.403-5.991 1.21-1.687.806-3.094 1.912-4.219 3.318-1.106 1.407-1.94 3.029-2.503 4.866-.544 1.819-.815 3.75-.815 5.794v1.181c0 2.044.271 3.984.815 5.822.563 1.819 1.397 3.431 2.503 4.837 1.125 1.407 2.532 2.513 4.219 3.32 1.706.805 3.703 1.209 5.991 1.209 2.156 0 4.134-.47 5.934-1.407 1.8-.956 3.253-2.203 4.359-3.74 1.125-1.557 1.735-3.235 1.829-5.035h-4.951a5.788 5.788 0 0 1-1.153 3.066 7.068 7.068 0 0 1-2.587 2.081Z"/><path fill="#000" fill-rule="evenodd" d="M140.492 32.482v-.647c0-2.194.318-4.228.956-6.103.638-1.894 1.556-3.534 2.756-4.922a12.292 12.292 0 0 1 4.36-3.262c1.706-.788 3.618-1.182 5.737-1.182 2.138 0 4.059.394 5.766 1.181a12.232 12.232 0 0 1 4.387 3.263c1.219 1.388 2.147 3.028 2.785 4.922.637 1.875.956 3.91.956 6.103v.647c0 2.194-.319 4.228-.956 6.103-.638 1.875-1.566 3.515-2.785 4.922a12.758 12.758 0 0 1-4.359 3.262c-1.688.77-3.6 1.154-5.738 1.154-2.137 0-4.059-.385-5.765-1.154a13.053 13.053 0 0 1-4.388-3.262c-1.2-1.407-2.118-3.047-2.756-4.922-.638-1.875-.956-3.91-.956-6.103Zm5.203-.647v.647c0 1.519.178 2.953.534 4.303.356 1.331.891 2.513 1.603 3.544a8.124 8.124 0 0 0 2.728 2.447c1.088.58 2.354.871 3.797.871 1.425 0 2.672-.29 3.741-.871a7.852 7.852 0 0 0 2.7-2.447c.713-1.031 1.247-2.213 1.603-3.544.375-1.35.563-2.784.563-4.303v-.647c0-1.5-.188-2.916-.563-4.247-.356-1.35-.9-2.54-1.631-3.572a7.76 7.76 0 0 0-2.7-2.475c-1.069-.6-2.325-.9-3.769-.9-1.425 0-2.681.3-3.769.9a8.107 8.107 0 0 0-2.7 2.475c-.712 1.032-1.247 2.222-1.603 3.572a16.38 16.38 0 0 0-.534 4.247ZM113.404 47.922c-2.119 0-4.041-.356-5.766-1.068a13.068 13.068 0 0 1-4.415-3.066c-1.219-1.313-2.157-2.869-2.813-4.669-.656-1.8-.984-3.768-.984-5.906v-1.181c0-2.475.365-4.678 1.097-6.61.731-1.95 1.725-3.6 2.981-4.95 1.256-1.35 2.681-2.371 4.275-3.065a12.28 12.28 0 0 1 4.95-1.04c2.175 0 4.05.374 5.625 1.124 1.594.75 2.897 1.8 3.909 3.15 1.013 1.332 1.763 2.907 2.25 4.725.488 1.8.732 3.769.732 5.907v2.334h-20.583c.033 1.298.228 2.526.586 3.684.412 1.257 1.003 2.363 1.772 3.319a8.49 8.49 0 0 0 2.84 2.25c1.125.544 2.4.816 3.825.816 1.838 0 3.394-.376 4.669-1.125 1.275-.75 2.391-1.754 3.347-3.01l3.15 2.504c-.657.993-1.491 1.94-2.503 2.84-1.013.9-2.26 1.631-3.741 2.194-1.462.562-3.197.843-5.203.843Zm-8.59-18.562h15.227v-.394a12.961 12.961 0 0 0-.843-3.937 7.083 7.083 0 0 0-2.25-3.15c-1.032-.825-2.438-1.238-4.219-1.238-1.181 0-2.269.253-3.263.76-.993.487-1.846 1.218-2.559 2.193-.713.975-1.266 2.166-1.659 3.572-.191.68-.335 1.412-.434 2.194Z" clip-rule="evenodd"/><path fill="#000" d="M82.985 47.36 71.96 16.929h5.344l7.73 23.315 7.542-23.315h5.315L86.951 47.36h-3.966Z"/></g><defs><linearGradient id="b" x1=".6" x2="64.6" y1="32" y2="32" gradientUnits="userSpaceOnUse"><stop stop-color="#FF8A11"/><stop offset="1" stop-color="#E81894"/></linearGradient><clipPath id="a"><path fill="#fff" d="M.28 0h253.44v64H.28z"/></clipPath></defs></svg>