<svg xmlns="http://www.w3.org/2000/svg" width="217" height="64" fill="none"><g clip-path="url(#a)"><mask id="b" width="217" height="64" x="0" y="0" maskUnits="userSpaceOnUse" style="mask-type:luminance"><path fill="#fff" d="M216.18 0H.82v64h215.36V0Z"/></mask><g mask="url(#b)"><path fill="#742BFF" d="M30.529 48.544c-3.344-1.315-8.195-17.085-5.44-19.059C27.84 27.52 44.02 32 45.047 34.931c1.261 3.575-11.174 14.928-14.518 13.613Z"/><path fill="#742BFF" fill-rule="evenodd" d="M53.323 17.66c5.097 3.249 8.201 9.642 8.707 18 .403 6.667-.967 13.62-3.571 18.139-.061.115-.125.217-.19.32-2.351 3.628-6.492 6.32-12.31 8C40.564 63.68 35.06 64 31.393 64c-5.978 0-11.479-.854-15.485-2.403l-.048-.02C9.06 58.88 5.006 52.48 3.79 42.538c-.016-.044-.016-.089-.016-.134-.506-4.995-.666-14.377 3.974-21.062l.077-.109c3.34-4.611 8.691-6.867 14.08-7.885l-8.832-6.844a3.63 3.63 0 1 1 4.62-5.597L30.197 11.92l9.78-8.22a4 4 0 1 1 5.145 6.127 5.88 5.88 0 0 1-.41.304l-4.979 3.2c5.296.832 10.167 2.314 13.367 4.192l.224.138Zm-21.93 39.275c8.675 0 17.974-2.065 20.947-6.66 3.863-6.704 4.119-22.25-2.803-26.643-3.811-2.227-11.578-3.962-19.066-3.962-7.078 0-13.533 1.546-16.531 5.706-2.74 3.946-3.731 10.39-3.126 16.32.716 5.93 2.646 11.344 7.641 13.319 3.248 1.25 7.99 1.92 12.938 1.92Z" clip-rule="evenodd"/><path fill="#742BFF" d="M163.38 34.652c0 2.557-.346 4.826-1.039 6.806-.692 1.98-1.695 3.646-3.008 4.997-1.314 1.35-2.903 2.376-4.767 3.079-1.863.684-3.967 1.026-6.31 1.026-2.183 0-4.189-.342-6.018-1.026a13.548 13.548 0 0 1-4.739-3.08c-1.349-1.35-2.396-3.015-3.142-4.996-.728-1.98-1.091-4.249-1.091-6.806 0-3.385.603-6.247 1.81-8.588 1.225-2.34 2.964-4.123 5.219-5.348 2.272-1.224 4.979-1.836 8.121-1.836 2.893 0 5.467.612 7.722 1.836 2.254 1.225 4.02 3.007 5.298 5.348 1.296 2.34 1.944 5.203 1.944 8.588Zm-19.544 0c0 1.747.151 3.223.453 4.43.301 1.188.781 2.097 1.438 2.727.674.613 1.553.919 2.636.919 1.082 0 1.943-.306 2.582-.919.639-.63 1.101-1.539 1.385-2.727.302-1.207.453-2.683.453-4.43 0-1.746-.151-3.204-.453-4.375-.284-1.17-.755-2.053-1.411-2.647-.639-.594-1.509-.89-2.61-.89-1.579 0-2.724.665-3.434 1.998-.693 1.332-1.039 3.303-1.039 5.914ZM130.242 34.652c0 2.557-.346 4.826-1.039 6.806-.692 1.98-1.695 3.646-3.008 4.997-1.314 1.35-2.903 2.376-4.766 3.079-1.864.684-3.968 1.026-6.311 1.026-2.183 0-4.189-.342-6.017-1.026a13.543 13.543 0 0 1-4.74-3.08c-1.349-1.35-2.396-3.015-3.142-4.996-.728-1.98-1.092-4.249-1.092-6.806 0-3.385.604-6.247 1.811-8.588 1.225-2.34 2.964-4.123 5.219-5.348 2.272-1.224 4.979-1.836 8.121-1.836 2.893 0 5.467.612 7.721 1.836 2.255 1.225 4.021 3.007 5.299 5.348 1.296 2.34 1.944 5.203 1.944 8.588Zm-19.544 0c0 1.747.151 3.223.453 4.43.302 1.188.781 2.097 1.438 2.727.674.613 1.553.919 2.635.919 1.083 0 1.944-.306 2.583-.919.639-.63 1.101-1.539 1.385-2.727.302-1.207.453-2.683.453-4.43 0-1.746-.151-3.204-.453-4.375-.284-1.17-.754-2.053-1.411-2.647-.639-.594-1.509-.89-2.61-.89-1.58 0-2.725.665-3.435 1.998-.692 1.332-1.038 3.303-1.038 5.914ZM98.115 50.02H73.14v-6.023l12.488-16.502H73.859V19.42h23.67v6.536L85.576 41.944h12.54v8.076Z"/><path fill="#000" d="m200.041 50.023-11.062-29.44h4.733l6.408 17.809a95.717 95.717 0 0 1 1.356 4.03c.461 1.468.78 2.65.958 3.545h.185c.213-.895.568-2.078 1.064-3.546.497-1.486.949-2.83 1.356-4.03l6.408-17.808h4.733l-11.088 29.44h-5.051ZM183.635 46.907c.727 0 1.471-.063 2.233-.188.762-.126 1.383-.278 1.861-.457v3.465c-.514.233-1.232.43-2.153.591-.904.161-1.791.242-2.659.242-1.542 0-2.943-.269-4.201-.806-1.259-.555-2.269-1.486-3.031-2.794-.745-1.307-1.117-3.115-1.117-5.425v-17.46h-4.148v-2.176l4.174-1.746 1.755-6.393h2.659v6.822h8.535v3.492h-8.535V41.4c0 1.845.417 3.223 1.25 4.137.851.913 1.976 1.37 3.377 1.37Z"/></g></g><defs><clipPath id="a"><path fill="#fff" d="M.82 0h215.36v64H.82z"/></clipPath></defs></svg>