<svg xmlns="http://www.w3.org/2000/svg" width="28" height="28" fill="none"><rect width="27" height="27" x=".5" y=".5" fill="#CECFD2" stroke="#fff" rx="3.98"/><path fill="#476AE6" fill-rule="evenodd" d="M15.172 4c.174 0 .315.14.315.315v3.813c0 .156.115.288.269.316.497.09.978.228 1.436.41.215.085.457-.068.457-.3V7.017c0-.173.14-.314.314-.314h1.533c.174 0 .315.14.315.314v5.511c0 .282-.35.429-.566.248a7.537 7.537 0 0 0-4.84-1.749c-1.84 0-3.527.657-4.839 1.75-.216.18-.566.033-.566-.25v-5.51c0-.174.141-.314.315-.314h1.533c.174 0 .314.14.314.314v1.537c0 .231.242.385.457.3a7.51 7.51 0 0 1 1.436-.41.324.324 0 0 0 .27-.316V4.315c0-.174.14-.315.314-.315h1.533Zm-.767 20a5.406 5.406 0 1 0 0-10.811 5.406 5.406 0 0 0 0 10.811Z" clip-rule="evenodd"/></svg>